<svg viewBox="0 0 75 91" xmlns="http://www.w3.org/2000/svg"><path d="M73.508 3.901C66.248.247 37.193.247 37.193.247S8.226.247.986 3.901c0 0-2.074 38.917 0 55.941.201 1.659.703 3.279 1.459 4.858 6.932 14.648 34.749 25.548 34.749 25.548s28.633-11.188 35.11-26.123a15.205 15.205 0 0 0 1.204-4.283c2.075-17.024 0-55.941 0-55.941zM7.317 57.486c.515-.522 3.098-1.552 3.098-1.552H7.832s0-2.59 1.031-2.59c0 0-2.068-1.03-4.135 0 0 0 0-.515.522-1.03l-1.037-.341c-.054-1.024-.1-2.081-.141-3.172 1.378.181 3.901.549 4.276.923.515.522-.515-1.546-.515-1.546s3.62 2.068 5.173 2.068c0 0-.522 0-.522-1.037h1.037l4.135 5.172v.515s-4.135 4.142-5.173 4.142h-3.62s-2.068-1.037-1.546-1.552zm44.471 17.579c-.515 0 .515-2.068.515-2.068-.515-.515-4.651 0-4.651 0 0-.515.515-1.552.515-1.552-1.552-.515-4.135 2.074-4.135 2.074-1.552.515-2.068 0-4.657-.522-2.583-.515-4.135-1.552-7.24-1.552-3.098 0-6.203 1.037-6.203 1.037s-7.755-1.037-8.277-1.552c-.515-.515-.515-1.031-.515-1.031 1.037-.522 2.068-.522 2.068-.522-.515-.515-3.105-1.552-3.105-1.552 0-1.03 3.105-3.098 3.105-3.098-3.105-.522-6.725 1.552-6.725 1.552l-1.03-.522-.515-1.552c.515-1.03 9.308-1.546 9.308-1.546s-2.068-.522-1.552-1.037c.515-.515 4.135 0 4.135 0l-.515-1.037c.515-1.03 3.62-1.03 3.62-1.03 1.552 5.172 19.653 8.793 24.819 8.793 5.173 0 4.142 1.552 4.657 3.098.513 1.551-3.622 3.619-3.622 3.619zm17.967-16.729c-.468 3.848-2.77 7.488-5.949 10.78-.368-.816-.642-1.653-.642-2.322 0-2.068 1.166-4.209 2.068-6.21 2.769-6.148 2.094-10.506-2.844-16.173C58.279 39.7 46.62 39.989 43 38.436c-2.757-1.178-5.431-4.738-6.301-6.331-.355-.649-.448-1.425-.161-2.101.254-.616.736-1.091 1.258-1.539 2.114-1.787 6.564-2.355 7.909-2.489.261-.027.502-.141.683-.328l.897-.89c.234-.241.368-.555.368-.89v-1.365c0-.435-.234-.83-.616-1.037l-4.671-2.549a.77.77 0 0 1-.402-.676v-.094a.88.88 0 0 0-.408-.743l-5.28-3.359s-.562-1.506-.127-2.804c.054-.154-.067-.321-.234-.335-.87-.047-3.071.007-3.68 1.746a.63.63 0 0 1-.522.402c-1.131.12-4.222.515-5.052 1.171a.766.766 0 0 1-.756.1c-.964-.361-2.964-.917-4.109.234-1.445 1.445-1.994 1.994-1.225 4.155.114.315.06.676-.141.95-1.445 1.967-6.511 8.806-8.324 12.587a6.411 6.411 0 0 0-.616 2.864c.027 1.653-.167 5.045-2.108 5.822 0 0-1.586 1.184-5.447 2.175C3.737 27.053 4.74 8.17 4.74 8.17 11.224 4.905 37.2 4.905 37.2 4.905s26.05 0 32.554 3.265c.001 0 1.867 34.896.001 50.166z" fill="#000" fill-rule="nonzero"/></svg>