<svg viewBox="0 0 75 91" xmlns="http://www.w3.org/2000/svg"><path d="M73.511 3.899C66.249.247 37.19.247 37.19.247S8.224.247.983 3.899c0 0-2.069 38.917 0 55.945.838 6.859 6.869 13.128 13.79 18.166C25.014 85.479 37.19 90.248 37.19 90.248s16.138-6.3 26.928-15.766c4.924-4.314 8.741-9.3 9.393-14.638 2.069-17.028 0-55.945 0-55.945zm-3.755 54.435c-.393 3.238-2.079 6.321-4.5 9.176.093-4.034-.683-8.7-2.648-14.069 0 0-4.053-10.894-5.608-14.004-2-4-4.844-8.072-4.844-9.706 0-1.635 1.043-5.19 1.752-6.186.495-.696 1.935-2.576 1.386-3.124-.548-.548-3.01.941-3.01.941-.093.093-8.7 4.355-4.355 13.055 4.355 8.69 6.528 13.583 5.979 14.131 0 0-13.045-5.259-19.024 1.259-4.417 4.821-3.417 7.872-3.417 8.959 0 1.087 1.783 21.314 22.441 8.259 0 0-2.172 13.055-15.217 13.055S25.646 67.572 25.646 67.572s.342-11.206 6.065-18.938C40 37.436 42 32.436 42.035 30.147 42.136 23.631 41 21.436 41 21.436s-2.309-9.313-12.365-6.861c0 0-7.614-1.086-11.421 5.979 0 0-7.603 5.431-3.807 9.238 0 0-.269 1.355.279 1.903.538.538-.548-1.634.538-1.634 0 0 1.635.548 2.721 0 1.086-.538-1.635 1.086-1.086 2.172 0 0-2.462.083-3.497 1.117-.517.517.238 2.69-.859 3.238-1.086.538-2.71 2.721-2.172 3.807 0 0 1.179-1.914 2.172-2.317a.234.234 0 0 1 .321.217c.01.559.217 1.81 1.852 2.638-.093-.103-1.097-1.221-.228-2.803.434-.776.579-1.686.497-2.576a6.775 6.775 0 0 1-.031-.652c0-1.086 1.945-1.572 1.945-1.572s3.807 5.431 13.045-4.893c0 0 2.172-.548 3.259-2.183 0 0 1.634 7.076-7.603 17.4 0 0-11.71 12.641-10.779 28.366-4.717-3.993-8.431-8.669-9.041-13.686-1.862-15.269 0-50.162 0-50.162 6.486-3.269 32.462-3.269 32.462-3.269s26.048 0 32.555 3.269c-.001 0 1.861 34.893-.001 50.162zm-18.838-.818s-8.7 5.979-10.324 2.172c0 0-.548-2.721 3.259-3.259 3.807-.547 7.065 1.087 7.065 1.087z" fill="#000" fill-rule="nonzero"/></svg>