<svg viewBox="0 0 163 57" xmlns="http://www.w3.org/2000/svg"><g fill="#000" fill-rule="evenodd"><path d="M67.41 18.624c1.956 0 3.364.16 4.225.482.192.068.376.229.554.482.178.253.267.69.267 1.312 0 .622-.113 1.03-.339 1.22l-.205.113c-.184 0-.489-.239-.912-.717-.985-1.094-2.167-1.641-3.548-1.641-1.374 0-2.475.537-3.302 1.61-.82 1.073-1.23 2.502-1.23 4.286 0 1.777.43 3.227 1.291 4.348.862 1.128 1.993 1.692 3.394 1.692.91 0 1.57-.192 1.98-.575.41-.382.615-1.141.615-2.276 0-.438-.103-.82-.308-1.148-.055-.09-.19-.238-.405-.447-.215-.208-.323-.34-.323-.394 0-.294.673-.441 2.02-.441.861 0 1.432.046 1.712.138.28.092.42.265.42.518 0 .048-.088.203-.266.467-.177.263-.28.439-.307.528-.028.089-.084.675-.17 1.758-.085 1.084-.205 1.735-.358 1.954-.154.218-.535.42-1.144.605-1.551.478-2.696.717-3.435.717h-.41c-.957 0-1.86-.165-2.707-.497a6.218 6.218 0 0 1-2.164-1.39c-.594-.594-1.073-1.36-1.435-2.296a7.922 7.922 0 0 1-.544-2.882v-.44c0-.964.192-1.918.575-2.861.717-1.764 1.914-2.984 3.589-3.661a7.591 7.591 0 0 1 2.87-.564zM80.403 32.6c0 .267-.618.4-1.856.4H77.46l-.43-.02-.646-.01c-.725 0-1.087-.13-1.087-.39 0-.185.162-.382.487-.59a1.54 1.54 0 0 0 .656-.81c.113-.332.17-1.31.17-2.938 0-1.627-.054-2.615-.16-2.963-.105-.349-.271-.598-.497-.749-.403-.266-.605-.461-.605-.584 0-.123.072-.233.216-.328.423-.287 1.141-.431 2.153-.431h.195c.39 0 .666.197.83.59.164.393.298.59.4.59.103 0 .279-.096.528-.288.25-.191.55-.383.903-.574a2.418 2.418 0 0 1 1.174-.287c.43 0 .76.11.99.333.228.222.343.508.343.856-.007.356-.1.622-.277.8-.178.178-.37.267-.574.267-.206 0-.476-.084-.81-.252-.335-.167-.616-.25-.841-.25-.226 0-.472.093-.739.281-.266.188-.494.523-.682 1.005-.187.482-.281 1.306-.281 2.471 0 1.166.082 1.918.246 2.256.164.338.418.648.764.928.345.28.517.51.517.687zm7.322-8.09c0 .731.567 2.468 1.702 5.209.157.383.283.574.38.574.095 0 .273-.277.532-.83.944-1.997 1.415-3.504 1.415-4.523 0-.294-.047-.533-.143-.717l-.113-.185c-.164-.219-.246-.372-.246-.461 0-.267.434-.4 1.302-.4h.656c.828 0 1.241.157 1.241.471 0 .178-.169.45-.507.816-.339.365-.583.72-.734 1.06-.15.343-.698 1.77-1.645 4.282-.947 2.512-1.68 4.228-2.2 5.147-.52.92-1.003 1.581-1.45 1.984-.448.404-.908.605-1.38.605h-.266c-.356 0-.658-.1-.908-.302-.25-.202-.374-.41-.374-.625 0-.216.087-.39.261-.523.175-.134.405-.2.692-.2l.236.02c.103.007.26.01.472.01.478 0 .92-.307 1.323-.922.403-.616.605-1.238.605-1.867s-.974-3.004-2.923-7.126a5.337 5.337 0 0 0-.784-1.17c-.345-.402-.518-.683-.518-.84 0-.26.181-.443.544-.549.362-.105.945-.158 1.748-.158s1.205.174 1.205.523c-.082.355-.123.587-.123.697zm11.833 8.726h-.564c-2.003 0-3.005-.154-3.005-.462 0-.177.17-.372.508-.584.338-.212.56-.504.666-.877.106-.372.16-1.427.16-3.163 0-1.736-.05-2.724-.15-2.963-.099-.24-.281-.45-.548-.631s-.4-.345-.4-.492c0-.147.152-.41.456-.79.305-.38.518-.836.641-1.369.315-1.326.749-2.29 1.303-2.891.704-.773 1.691-1.159 2.963-1.159.615 0 1.107.108 1.476.323.37.215.554.494.554.836 0 .341-.09.594-.272.758-.18.165-.372.247-.574.247-.201 0-.53-.123-.984-.37-.455-.246-.798-.369-1.03-.369-.377 0-.665.234-.867.703a3.86 3.86 0 0 0-.303 1.543c0 .56.117.97.349 1.23.082.09.386.269.913.539.526.27.79.507.79.712 0 .158-.27.316-.81.477-.54.16-.876.337-1.006.528-.219.321-.328 1.359-.328 3.112 0 1.754.063 2.808.19 3.164.126.355.374.666.743.933.37.266.554.471.554.615 0 .267-.475.4-1.425.4zm7.68 0h-.564c-2.003 0-3.005-.154-3.005-.462 0-.177.17-.372.508-.584.338-.212.56-.504.667-.877.105-.372.158-1.427.158-3.163 0-1.736-.05-2.724-.148-2.963-.1-.24-.282-.45-.549-.631-.266-.181-.4-.345-.4-.492 0-.147.152-.41.457-.79.304-.38.517-.836.64-1.369.315-1.326.749-2.29 1.303-2.891.704-.773 1.692-1.159 2.963-1.159.615 0 1.108.108 1.477.323.369.215.553.494.553.836 0 .341-.09.594-.271.758-.182.165-.373.247-.575.247-.201 0-.53-.123-.984-.37-.455-.246-.798-.369-1.03-.369-.376 0-.665.234-.867.703a3.86 3.86 0 0 0-.302 1.543c0 .56.116.97.348 1.23.082.09.386.269.913.539.526.27.79.507.79.712 0 .158-.27.316-.81.477-.54.16-.876.337-1.006.528-.218.321-.328 1.359-.328 3.112 0 1.754.064 2.808.19 3.164.126.355.374.666.743.933.37.266.554.471.554.615 0 .267-.475.4-1.425.4zm7.906-13.402c0 .3-.129.58-.385.836s-.51.384-.764.384a.576.576 0 0 1-.133.02l-.226.021c-.342 0-.647-.113-.917-.338a1.084 1.084 0 0 1-.406-.872v-.184c0-.356.142-.655.426-.898.284-.242.61-.364.98-.364h.05l.35.041c.211 0 .432.115.66.344.23.229.344.46.344.692l.02.092v.226zm-3.261 4.573c-.356-.17-.533-.331-.533-.482 0-.15.071-.27.215-.359.499-.3 1.289-.45 2.369-.45h.297c.37 0 .578.17.625.512.028.185.041 1.427.041 3.727s.048 3.62.144 3.958c.096.339.325.598.687.78.362.18.544.364.544.548 0 .26-.848.39-2.543.39l-.308.01h-1.251c-.5 0-.749-.123-.749-.37 0-.204.153-.402.457-.594.304-.191.514-.403.63-.636.13-.253.195-.844.195-1.774l.01-.328v-.318l.01-.481v-.318l.01-.318c0-1.62-.052-2.565-.158-2.835-.106-.27-.337-.49-.692-.662zm7.495 8.511c-.963 0-1.445-.137-1.445-.41 0-.226.126-.41.379-.554.458-.26.725-.494.8-.702.075-.209.113-1.197.113-2.964s-.053-2.802-.16-3.107a1.523 1.523 0 0 0-.579-.753c-.28-.199-.42-.36-.42-.482 0-.123.092-.24.277-.349.43-.253 1.114-.38 2.05-.38.28 0 .5.096.657.288.055.068.131.217.23.446.1.229.166.343.2.343.13-.006.332-.099.605-.276.944-.636 1.798-.954 2.564-.954h.349c.553 0 1.052.137 1.497.41.444.274.787.684 1.03 1.23.243.547.364 1.739.364 3.574 0 1.836.04 2.86.118 3.076.079.216.3.416.667.6.365.185.548.366.548.544 0 .307-.97.461-2.912.461h-.308c-.615 0-.922-.147-.922-.44 0-.062.075-.211.225-.447.15-.236.253-.497.308-.784.055-.288.082-1.233.082-2.836 0-1.603-.1-2.633-.298-3.091-.273-.63-.728-.944-1.363-.944a3 3 0 0 0-1.349.323c-.434.216-.748.52-.943.913-.195.393-.292 1.333-.292 2.82 0 1.487.04 2.386.123 2.697.082.31.18.562.297.753l.38.616c0 .266-.537.4-1.61.4l-.626-.021h-.636zm18.13-6.942c0-.554-.178-.996-.534-1.328-.355-.331-.827-.497-1.415-.497h-.195c-.307 0-.635.092-.984.277a2.296 2.296 0 0 0-.861.8c-.452.697-.677 1.562-.677 2.594v.605c0 1.025.23 1.873.692 2.543.461.67 1.024 1.005 1.687 1.005h.297c.581 0 1.056-.199 1.425-.595.37-.397.554-.902.554-1.518l.02-.215v-.215l.021-.534v-.984l.01-.328v-.318l-.01-.113v-.543l-.01-.103v-.215a3.42 3.42 0 0 1-.02-.318zm.05-2.902c.062-.15.093-.601.093-1.353s-.058-1.304-.174-1.656a1.808 1.808 0 0 0-.61-.872c-.291-.229-.436-.401-.436-.518 0-.116.078-.218.236-.307.423-.246 1.114-.37 2.07-.37h.247c.478 0 .752.257.82.77.02.157.031 2.11.031 5.86 0 3.75.027 5.807.082 6.173.055.365.185.65.39.856.04.04.172.145.394.312.223.168.334.315.334.441 0 .127-.096.241-.287.344-.39.212-1.026.318-1.908.318-.307 0-.553-.093-.738-.277-.362-.362-.559-.544-.59-.544-.03 0-.186.08-.466.236-.28.158-.617.316-1.01.477-.393.16-.88.241-1.461.241a3.47 3.47 0 0 1-1.61-.38c-.91-.464-1.548-1.233-1.918-2.306a6.518 6.518 0 0 1-.328-2.113c0-1.545.443-2.802 1.328-3.773.885-.97 2.107-1.456 3.666-1.456l1.343.123c.274 0 .441-.075.503-.226zm7.558 4.645v.38c0 1.162.225 2.126.677 2.891.211.363.481.65.81.862.328.211.66.317.994.317h.205c.622 0 1.16-.302 1.615-.907.455-.605.682-1.465.682-2.579v-.728c0-1.1-.227-2.035-.682-2.804-.454-.77-1.03-1.154-1.728-1.154h-.317c-.63 0-1.163.338-1.6 1.015-.438.677-.656 1.58-.656 2.707zm7.454.041v.513c0 .54-.109 1.131-.328 1.774-.458 1.34-1.37 2.276-2.738 2.81a4.722 4.722 0 0 1-1.722.348h-.339c-1.305 0-2.396-.437-3.27-1.312-.397-.397-.718-.92-.964-1.57a5.796 5.796 0 0 1-.37-2.07v-.175c0-.663.117-1.333.349-2.01.451-1.319 1.336-2.235 2.656-2.748.595-.232 1.165-.348 1.712-.348h.513c.608 0 1.206.136 1.794.41 1.115.52 1.89 1.347 2.328 2.481.253.67.38 1.303.38 1.897zm6.952 4.84c0 .267-.618.4-1.855.4h-1.087l-.431-.02-.646-.01c-.725 0-1.087-.13-1.087-.39 0-.185.162-.382.487-.59a1.54 1.54 0 0 0 .656-.81c.113-.332.17-1.31.17-2.938 0-1.627-.053-2.615-.16-2.963-.105-.349-.271-.598-.497-.749-.403-.266-.605-.461-.605-.584 0-.123.072-.233.216-.328.423-.287 1.141-.431 2.153-.431h.195c.39 0 .666.197.83.59.164.393.298.59.4.59.103 0 .279-.096.528-.288.25-.191.55-.383.903-.574a2.418 2.418 0 0 1 1.174-.287c.43 0 .76.11.99.333.228.222.343.508.343.856-.007.356-.1.622-.277.8-.178.178-.37.267-.574.267-.205 0-.475-.084-.81-.252-.335-.167-.616-.25-.841-.25-.226 0-.472.093-.738.281-.267.188-.494.523-.682 1.005-.188.482-.282 1.306-.282 2.471 0 1.166.082 1.918.246 2.256.164.338.418.648.764.928.345.28.517.51.517.687z" fill-opacity=".63"/><path d="M46.419 2.313C41.829 0 23.464 0 23.464 0S5.157 0 .581 2.313c0 0-1.307 24.647 0 35.432.784 6.453 8.833 12.081 15.162 15.56a76.58 76.58 0 0 0 4.675 2.365A62.89 62.89 0 0 0 23.465 57s.058-.02.163-.065a75.167 75.167 0 0 0 5.643-2.601c6.504-3.329 16.278-9.454 17.148-16.59 1.307-10.784 0-35.431 0-35.431zM10.807 34.888s-.268 6.094-.81 9.068c-.177.995.032 1.985.392 2.87-3.76-2.811-6.983-6.264-7.434-10.038a63.78 63.78 0 0 1-.353-4.5A3.56 3.56 0 0 0 4.328 33.4s-.811-3.518.536-3.25c0 0 1.758-.405 2.432-1.624 0 0 3.916 1.356 3.51 6.361zm19.077 16.137l.001-.01a2.839 2.839 0 0 0-.284-1.305c-.33-.701-1.034-2.128-1.585-2.745a.98.98 0 0 1-.271-.682c.025-.767.298-2.408 1.97-4.082 0 0 4.459-3.794 4.054-5.825 0 0 2.027-.406 2.562.138 0 0 2.164-.269 3.112 0 .942.268 2.969 1.762 3.511 1.487 0 0 .34.15.765.262-1.667 5.346-8.552 9.932-13.835 12.762zm14.463-17.683c-.366-.295-.857-.485-1.53-.485-1.89 0-1.89.275-3.374.275-1.491 0-2.838-.681-2.838-.681s2.761-3.523 2.23-6.078a1.143 1.143 0 0 1 .018-.586c.201-.622.743-2.02 1.707-2.601.297-.179.518-.458.555-.804.138-1.3.554-3.896 1.159-4.274 0 0 .478-1.182.274-1.625-.245-.531-.475-1.477-1.896-.95-.33.123-2.17 1.566-2.489 2.118-.391.676-.885 1.643-.885 2.213 0 0-.2.684-.03 1.788.019.129-1.997 5.523-3.213 5.792 0 0-2.026-3.655-3.51-4.062 0 0-1.752-.131-2.158-.537 0 0 1.347-1.081 2.838-.681 0 0 .13-2.837.804-2.837 0 0-2.02-.138-2.969.268 0 0-2.838-.812-.405-2.843 0 0 .81.406 1.353.406 0 0 .536.812.536 1.356 0 0 .68 0 .68-.276l.268.276s.81-1.088.81-1.626c0 0 1.622-2.03 1.42-2.908 0 0-1.491-1.088-3.38-1.088 0 0-.536-1.618-2.7-2.025 0 0-2.432-1.9-3.106-1.9l.674.682s-4.93-1.56-5.871-.34c0 0 2.027.405 2.027 1.08 0 0-3.243-.812-4.054.544 0 0 1.079-.268 1.347 0 0 0-3.917 1.625-4.185 2.568 0 0 .674-.268.948 0 0 0-1.085.95-1.085 1.356 0 0 .68-.268.68 0 0 0-2.027 2.3-1.759 3.25 0 0 .405-.681 1.353-.681 0 0-.68 2.168-1.759 2.843 0 0 .674 0 1.08-.406 0 0-.812 2.706-2.97 3.25 0 0 .544.268 1.217.268 0 0 1.216.544 1.216 1.219 0 0 1.484-.537 1.89-.269 0 0 .542 3.519 1.758 3.519 0 0 .942 3.112 1.89 3.518 0 0 .268 2.3.674 2.705 0 0 .268 5.419-.674 6.362 0 0-3.864 4.121-4.171 7.2a.384.384 0 0 1-.438.348c-.419-.06-1.027-.216-1.203-.643 0 0-1.615-2.3-1.079-5.28 0 0 .664-3.995.49-6.458a29.964 29.964 0 0 1-.07-1.348c-.036-1.449-.542-5.035-4.466-6.95 0 0-1.76-2.024-3.786-1.349-.784.262-1.347.865-1.74 1.514-.143-10.24.504-22.453.504-22.453 4.1-2.07 20.516-2.07 20.516-2.07s16.463 0 20.575 2.07c0 .003.942 17.673.302 28.326z" fill-opacity=".635" fill-rule="nonzero"/></g></svg>