<svg viewBox="0 0 127 134" xmlns="http://www.w3.org/2000/svg"><g fill="#000" fill-rule="evenodd" opacity=".63"><path d="M8.9785 110.2012c2.4206 0 4.164.1989 5.2305.5967.237.0846.4655.2835.6855.5966.22.3132.3301.8548.3301 1.625s-.1396 1.2738-.419 1.5108l-.2538.1396c-.2286 0-.6052-.2962-1.13-.8886-1.2187-1.3542-2.6829-2.0313-4.3925-2.0313-1.7012 0-3.0638.6644-4.0879 1.9932-1.0156 1.3287-1.5234 3.0976-1.5234 5.3066 0 2.2005.5332 3.9948 1.5996 5.3828 1.0664 1.3965 2.467 2.0947 4.2021 2.0947 1.1257 0 1.9424-.237 2.4502-.7109.5078-.474.7617-1.4134.7617-2.8184 0-.5416-.127-1.0156-.3808-1.4218-.0677-.11-.2349-.2941-.5015-.5523-.2666-.2581-.3999-.421-.3999-.4887 0-.364.8337-.546 2.501-.546 1.0664 0 1.7731.0572 2.1201.1714.347.1143.5205.328.5205.6412 0 .0592-.11.2517-.33.5776-.2201.3258-.347.5438-.381.6538-.0338.11-.1036.8358-.2094 2.1772-.1058 1.3415-.2539 2.1477-.4443 2.4185-.1905.2708-.6623.5205-1.4156.749-1.9212.5925-3.3388.8887-4.2529.8887H8.75c-1.1849 0-2.302-.2052-3.3516-.6157-1.0494-.4105-1.9423-.9839-2.6787-1.7202-.7363-.7364-1.3287-1.6843-1.7773-2.8438-.4486-1.1595-.6729-2.3486-.6729-3.5674v-.5459c0-1.1933.237-2.374.711-3.542.8886-2.1836 2.3698-3.6943 4.4433-4.5322 1.151-.4655 2.336-.6982 3.5547-.6982zm16.085 17.3037c0 .33-.766.4951-2.2979.4951H21.42l-.5332-.0254-.7998-.0127c-.8971 0-1.3457-.1608-1.3457-.4824 0-.2285.201-.4718.603-.73.402-.2581.6729-.5924.8125-1.003.1397-.4104.2095-1.6228.2095-3.6371 0-2.0144-.0656-3.2373-.1968-3.669-.1312-.4316-.3364-.7405-.6157-.9267-.4993-.3301-.749-.5713-.749-.7237 0-.1523.0889-.2877.2666-.4062.5247-.3555 1.4134-.5332 2.666-.5332h.2412c.4824 0 .8252.2433 1.0283.73.2032.4866.3682.73.4952.73.127 0 .3448-.1185.6538-.3555.3089-.237.6813-.474 1.1171-.711.436-.237.9205-.3554 1.4537-.3554s.9415.1375 1.225.4126c.2836.275.4254.6284.4254 1.06-.0085.4401-.1228.7702-.3428.9903-.22.22-.457.33-.711.33-.2539 0-.5882-.1036-1.0029-.311-.4147-.2074-.7617-.311-1.041-.311-.2793 0-.584.1163-.914.349-.3301.2328-.6116.6475-.8443 1.2442-.2328.5967-.3491 1.6166-.3491 3.0596s.1015 2.374.3047 2.793c.203.419.5184.8019.9458 1.1489.4274.347.641.6305.641.8506zm9.0644-10.0166c0 .9056.7025 3.0553 2.1075 6.4492.1946.474.3512.711.4697.711s.3385-.3428.6601-1.0284c1.168-2.4713 1.752-4.3375 1.752-5.5986 0-.364-.0593-.6602-.1777-.8887l-.1397-.2285c-.2031-.2708-.3047-.4613-.3047-.5713 0-.33.5374-.4951 1.6123-.4951h.8125c1.0241 0 1.5362.1946 1.5362.584 0 .22-.2095.5565-.6285 1.0093-.419.4528-.7215.8907-.9077 1.314-.1862.4231-.8654 2.1898-2.0376 5.3002-1.1722 3.1104-2.0799 5.2347-2.7231 6.373-.6433 1.1384-1.242 1.9572-1.7964 2.4566-.5544.4994-1.1235.749-1.7075.749h-.3301c-.4401 0-.8146-.1248-1.1235-.3745-.309-.2497-.4634-.5078-.4634-.7744 0-.2666.1079-.4824.3237-.6475.2158-.165.5015-.2475.857-.2475l.292.0254c.1269.0084.3216.0127.584.0127.5924 0 1.1383-.3809 1.6376-1.1426.4994-.7617.749-1.532.749-2.3106s-1.206-3.7197-3.6181-8.8232c-.22-.4655-.5438-.948-.9712-1.4473-.4274-.4993-.6411-.8463-.6411-1.041 0-.3216.2243-.548.6728-.6792.4486-.1312 1.1701-.1968 2.1646-.1968.9944 0 1.4917.2159 1.4917.6475-.1016.4401-.1524.7279-.1524.8633zm14.6504 10.8037h-.6982c-2.4799 0-3.7197-.1904-3.7197-.5713 0-.22.2094-.4613.6284-.7236.419-.2624.694-.6242.8252-1.0855.1312-.4612.1967-1.7667.1967-3.9165 0-2.1497-.0613-3.3727-.184-3.669-.1228-.2962-.3492-.5564-.6792-.7807-.3301-.2243-.4952-.4274-.4952-.6094 0-.182.1884-.5078.565-.9775.3766-.4697.6411-1.0347.7934-1.6948.3894-1.642.9268-2.8353 1.6123-3.5801.8718-.9564 2.0948-1.4346 3.669-1.4346.7617 0 1.371.1333 1.8281.4.457.2665.6856.6114.6856 1.0346 0 .4232-.1122.7363-.3365.9394-.2242.2032-.4612.3047-.7109.3047-.2497 0-.656-.1523-1.2187-.457-.5629-.3047-.9882-.457-1.276-.457-.4654 0-.823.2898-1.0727.8696-.2497.5798-.3745 1.2166-.3745 1.9106 0 .694.1439 1.2019.4316 1.5235.1016.11.4782.3322 1.13.6665.6516.3343.9775.6284.9775.8823 0 .1947-.3343.3914-1.003.5903-.6686.199-1.0833.4169-1.2441.6539-.2708.3977-.4063 1.682-.4063 3.853 0 2.1709.0783 3.4764.235 3.9165.1565.44.4633.8252.9203 1.1553.457.33.6856.584.6856.7617 0 .33-.5882.495-1.7647.495zm9.5088 0h-.6982c-2.4799 0-3.7198-.1904-3.7198-.5713 0-.22.2095-.4613.6285-.7236.419-.2624.694-.6242.8252-1.0855.1311-.4612.1967-1.7667.1967-3.9165 0-2.1497-.0613-3.3727-.184-3.669-.1228-.2962-.3492-.5564-.6793-.7807-.33-.2243-.495-.4274-.495-.6094 0-.182.1882-.5078.5649-.9775.3766-.4697.641-1.0347.7934-1.6948.3894-1.642.9268-2.8353 1.6123-3.5801.8718-.9564 2.0948-1.4346 3.669-1.4346.7617 0 1.371.1333 1.8281.4.457.2665.6856.6114.6856 1.0346 0 .4232-.1122.7363-.3365.9394-.2243.2032-.4612.3047-.711.3047-.2496 0-.6558-.1523-1.2187-.457-.5628-.3047-.988-.457-1.2758-.457-.4655 0-.8231.2898-1.0728.8696-.2497.5798-.3745 1.2166-.3745 1.9106 0 .694.1439 1.2019.4316 1.5235.1016.11.4782.3322 1.13.6665.6516.3343.9775.6284.9775.8823 0 .1947-.3343.3914-1.003.5903-.6686.199-1.0833.4169-1.2441.6539-.2708.3977-.4063 1.682-.4063 3.853 0 2.1709.0783 3.4764.2349 3.9165.1566.44.4634.8252.9204 1.1553.457.33.6856.584.6856.7617 0 .33-.5883.495-1.7647.495zm9.7881-16.5928c0 .3724-.1587.7173-.476 1.0347-.3175.3174-.6327.476-.9459.476-.0677.017-.1227.0255-.165.0255l-.2793.0253c-.4232 0-.802-.1396-1.1362-.4189-.3344-.2793-.5015-.639-.5015-1.0791v-.2285c0-.4401.1756-.8104.5268-1.1109.3513-.3004.7554-.4506 1.2124-.4506h.0635l.4317.0507c.2623 0 .5353.1418.8188.4253.2835.2836.4253.5692.4253.857l.0254.1142v.2793zm-4.0371 5.6621c-.4401-.2116-.6602-.4105-.6602-.5967 0-.1861.0889-.3343.2666-.4443.6179-.3724 1.5954-.5586 2.9326-.5586h.3682c.457 0 .7152.2116.7744.6348.0339.2285.0508 1.7667.0508 4.6147s.0593 4.4815.1777 4.9004c.1185.419.402.7406.8506.9649.4486.2243.6729.4506.6729.6792 0 .3216-1.0495.4824-3.1485.4824l-.3808.0127h-1.5488c-.6179 0-.9268-.1524-.9268-.457 0-.254.1883-.4994.565-.7364.3766-.237.6368-.4993.7807-.787.1608-.3132.2412-1.0453.2412-2.1964l.0127-.4062v-.3936l.0127-.5967v-.3935l.0127-.3936c0-2.0058-.0656-3.176-.1968-3.5102-.1312-.3343-.4168-.6073-.857-.8189zm9.2803 10.5371c-1.1934 0-1.79-.1692-1.79-.5078 0-.2793.1565-.5078.4696-.6855.5671-.3216.8972-.6115.9903-.8697.093-.258.1396-1.481.1396-3.6689 0-2.1878-.0656-3.47-.1967-3.8467-.1312-.3766-.3703-.6876-.7173-.933-.347-.2455-.5205-.4444-.5205-.5968 0-.1523.1142-.2962.3427-.4316.5332-.3132 1.3796-.4697 2.5391-.4697.347 0 .6178.1185.8125.3554.0677.0847.163.2688.2856.5523.1228.2835.2053.4253.2476.4253.1608-.0085.4105-.1227.749-.3428 1.168-.7871 2.226-1.1807 3.1739-1.1807h.4316c.6855 0 1.3034.1693 1.8535.5079.5501.3385.9754.8463 1.2759 1.5234.3004.677.4507 2.1518.4507 4.4243 0 2.2725.0486 3.542.146 3.8086.0973.2666.3724.5142.8252.7427.4528.2285.6792.4528.6792.6728 0 .3809-1.2019.5713-3.6055.5713h-.3809c-.7617 0-1.1425-.182-1.1425-.5459 0-.0762.093-.2602.2793-.5522.1861-.292.3131-.6157.3808-.9712.0677-.3555.1016-1.5256.1016-3.5103s-.1227-3.2605-.3682-3.8276c-.3385-.7787-.9014-1.168-1.6885-1.168-.5755 0-1.132.1333-1.6694.4-.5374.2665-.9268.6432-1.168 1.1298-.2412.4867-.3618 1.6504-.3618 3.4912s.0508 2.9538.1524 3.3389c.1015.385.2242.6961.3681.933l.4697.7618c0 .33-.6643.4951-1.9931.4951l-.7744-.0254h-.7871zm22.4453-8.5947c0-.6855-.22-1.2335-.6602-1.644-.44-.4105-1.024-.6158-1.752-.6158h-.2411c-.381 0-.7872.1143-1.2188.3428-.4316.2285-.7871.5586-1.0664.9903-.5586.8632-.8379 1.9339-.8379 3.2119v.749c0 1.2695.2856 2.319.857 3.1484.5712.8295 1.2673 1.2442 2.0883 1.2442h.3682c.7194 0 1.3076-.2455 1.7646-.7364.457-.4908.6856-1.1171.6856-1.8789l.0254-.2666v-.2666l.0254-.6601v-1.2188l.0127-.4062v-.3936l-.0127-.1396v-.6729l-.0127-.127v-.2665c-.017-.1693-.0254-.3005-.0254-.3936zm.0634-3.5928c.0762-.1862.1143-.7447.1143-1.6757 0-.931-.072-1.6145-.2158-2.0503-.1439-.436-.3957-.7956-.7554-1.0791-.3597-.2836-.5395-.4973-.5395-.6412 0-.1438.0973-.2708.292-.3808.5247-.3047 1.3795-.457 2.5644-.457h.3047c.5924 0 .931.3173 1.0156.9521.0254.1947.0381 2.6131.0381 7.2554s.0339 7.1898.1016 7.6426c.0677.4528.2285.8061.4824 1.06.0508.0508.2137.1799.4888.3872.275.2074.4126.3893.4126.546 0 .1565-.1185.2983-.3555.4252-.4824.2624-1.2695.3936-2.3613.3936-.3809 0-.6856-.1143-.9141-.3428-.4486-.4486-.6919-.6729-.73-.6729-.038 0-.2306.0974-.5776.292-.347.1947-.7638.3915-1.2505.5904-.4867.1989-1.0897.2983-1.809.2983-.7195 0-1.3839-.1566-1.9933-.4697-1.1256-.5755-1.917-1.5277-2.374-2.8565-.2708-.7955-.4062-1.6673-.4062-2.6152 0-1.9128.548-3.47 1.644-4.6719 1.096-1.2018 2.6089-1.8027 4.5386-1.8027l1.663.1523c.3386 0 .546-.093.6221-.2793zm9.3565 5.751v.4697c0 1.4389.2793 2.6322.8379 3.5801.2624.4486.5967.804 1.003 1.0664.4062.2624.8166.3936 1.2314.3936h.2539c.7702 0 1.4366-.3745 1.9995-1.1236.5628-.749.8442-1.8133.8442-3.1928v-.9014c0-1.3626-.2814-2.52-.8442-3.4722-.5629-.9521-1.2759-1.4282-2.1392-1.4282h-.3935c-.7787 0-1.4388.419-1.9805 1.2569-.5417.8378-.8125 1.955-.8125 3.3515zm9.2295.0508v.6348c0 .6686-.1354 1.4007-.4063 2.1963-.567 1.6588-1.6969 2.8183-3.3896 3.4785-.7363.2877-1.4473.4316-2.1328.4316h-.419c-1.6165 0-2.9664-.5417-4.0498-1.625-.4909-.4909-.8886-1.1383-1.1933-1.9424-.3047-.804-.457-1.6588-.457-2.5644v-.2159c0-.821.1438-1.6503.4316-2.4882.5586-1.6335 1.6546-2.7676 3.288-3.4024.7364-.2877 1.443-.4316 2.1202-.4316h.6347c.7533 0 1.4939.1693 2.2217.5078 1.3796.6432 2.3402 1.6673 2.8819 3.0723.3131.8294.4697 1.6123.4697 2.3486zm8.6074 5.9922c0 .33-.766.4951-2.2978.4951h-1.3457l-.5332-.0254-.7999-.0127c-.897 0-1.3457-.1608-1.3457-.4824 0-.2285.201-.4718.603-.73.402-.2581.673-.5924.8126-1.003.1396-.4104.2094-1.6228.2094-3.6371 0-2.0144-.0656-3.2373-.1967-3.669-.1312-.4316-.3365-.7405-.6158-.9267-.4993-.3301-.749-.5713-.749-.7237 0-.1523.0889-.2877.2666-.4062.5248-.3555 1.4134-.5332 2.666-.5332h.2412c.4825 0 .8252.2433 1.0284.73.203.4866.3681.73.495.73.127 0 .345-.1185.6539-.3555.309-.237.6813-.474 1.1172-.711.4359-.237.9204-.3554 1.4536-.3554s.9416.1375 1.225.4126c.2836.275.4254.6284.4254 1.06-.0085.4401-.1227.7702-.3428.9903-.22.22-.457.33-.711.33-.2538 0-.5881-.1036-1.0029-.311-.4147-.2074-.7617-.311-1.041-.311-.2793 0-.584.1163-.914.349-.3301.2328-.6115.6475-.8443 1.2442-.2327.5967-.349 1.6166-.349 3.0596s.1015 2.374.3046 2.793c.2031.419.5184.8019.9458 1.1489.4274.347.6411.6305.6411.8506z"/><path d="M99.4476 3.652C92.1856 0 63.1266 0 63.1266 0s-28.966 0-36.207 3.652c0 0-2.069 38.917 0 55.945 1.241 10.19 13.976 19.076 23.99 24.569a121.272 121.272 0 0 0 7.397 3.734c2.928 1.355 4.821 2.1 4.821 2.1s.093-.031.259-.103c.952-.383 4.448-1.831 8.928-4.107 10.292-5.255 25.757-14.927 27.133-26.193 2.069-17.028 0-55.945 0-55.945zm-56.348 51.435s-.424 9.621-1.283 14.317c-.279 1.572.052 3.135.621 4.531-5.948-4.438-11.048-9.89-11.762-15.848-.248-2.059-.434-4.469-.559-7.107.621.735 1.5 1.386 2.731 1.759 0 0-1.283-5.555.848-5.131 0 0 2.783-.641 3.848-2.565.001-.001 6.197 2.14 5.556 10.044zm30.186 25.479l.001-.016c.025-.713-.146-1.415-.45-2.06-.521-1.108-1.636-3.36-2.508-4.334-.269-.3-.443-.674-.429-1.077.04-1.212.473-3.802 3.118-6.446 0 0 7.055-5.99 6.414-9.197 0 0 3.207-.641 4.055.217 0 0 3.424-.424 4.924 0 1.49.424 4.697 2.783 5.555 2.348 0 0 .538.238 1.21.414-2.638 8.441-13.531 15.682-21.89 20.151zm22.883-27.921c-.579-.466-1.355-.766-2.421-.766-2.99 0-2.99.435-5.338.435-2.359 0-4.49-1.076-4.49-1.076s4.369-5.562 3.528-9.596a1.802 1.802 0 0 1 .029-.925c.318-.983 1.175-3.191 2.701-4.108.47-.282.82-.723.878-1.269.218-2.054.877-6.151 1.833-6.748 0 0 .757-1.867.434-2.566-.387-.839-.752-2.332-3-1.5-.523.194-3.433 2.473-3.938 3.344-.619 1.068-1.4 2.594-1.4 3.494 0 0-.316 1.081-.049 2.823.031.204-3.158 8.721-5.082 9.146 0 0-3.207-5.772-5.555-6.414 0 0-2.772-.207-3.414-.848 0 0 2.131-1.707 4.49-1.076 0 0 .207-4.479 1.272-4.479 0 0-3.197-.217-4.697.424 0 0-4.49-1.283-.641-4.49 0 0 1.283.641 2.141.641 0 0 .848 1.283.848 2.141 0 0 1.076 0 1.076-.435l.424.435s1.283-1.717 1.283-2.566c0 0 2.565-3.207 2.245-4.593 0 0-2.359-1.717-5.348-1.717 0 0-.848-2.555-4.272-3.197 0 0-3.848-3-4.914-3l1.066 1.076s-7.8-2.462-9.29-.538c0 0 3.207.641 3.207 1.707 0 0-5.131-1.283-6.414.859 0 0 1.707-.424 2.131 0 0 0-6.197 2.565-6.621 4.055 0 0 1.066-.424 1.5 0 0 0-1.717 1.5-1.717 2.141 0 0 1.076-.424 1.076 0 0 0-3.207 3.631-2.783 5.131 0 0 .641-1.076 2.141-1.076 0 0-1.076 3.424-2.783 4.49 0 0 1.066 0 1.707-.641 0 0-1.283 4.272-4.697 5.131 0 0 .859.424 1.924.424 0 0 1.924.859 1.924 1.924 0 0 2.348-.848 2.99-.424 0 0 .859 5.555 2.783 5.555 0 0 1.49 4.914 2.99 5.555 0 0 .424 3.631 1.066 4.272 0 0 .424 8.555-1.066 10.045 0 0-6.114 6.507-6.6 11.369a.607.607 0 0 1-.693.548c-.662-.093-1.624-.341-1.903-1.014 0 0-2.555-3.631-1.707-8.338 0 0 1.051-6.308.775-10.197a47.2128 47.2128 0 0 1-.11-2.128c-.058-2.287-.859-7.949-7.068-10.972 0 0-2.783-3.197-5.99-2.131-1.241.414-2.131 1.366-2.752 2.39-.228-16.169.797-35.452.797-35.452 6.486-3.269 32.462-3.269 32.462-3.269s26.048 0 32.555 3.269c.001.005 1.491 27.905.477 44.725z" fill-rule="nonzero"/></g></svg>