<svg viewBox="0 0 126 134" xmlns="http://www.w3.org/2000/svg"><g fill="#000" fill-rule="evenodd" opacity=".6332"><path d="M98.4438 3.654C91.1838 0 62.1288 0 62.1288 0s-28.967 0-36.207 3.654c0 0-2.074 38.917 0 55.941.201 1.659.703 3.279 1.459 4.858 6.932 14.648 34.749 25.548 34.749 25.548s28.633-11.188 35.11-26.123a15.205 15.205 0 0 0 1.204-4.283c2.075-17.024 0-55.941 0-55.941zm-66.191 53.585c.515-.522 3.098-1.552 3.098-1.552h-2.583s0-2.59 1.031-2.59c0 0-2.068-1.03-4.135 0 0 0 0-.515.522-1.03l-1.037-.341c-.054-1.024-.1-2.081-.141-3.172 1.378.181 3.901.549 4.276.923.515.522-.515-1.546-.515-1.546s3.62 2.068 5.173 2.068c0 0-.522 0-.522-1.037h1.037l4.135 5.172v.515s-4.135 4.142-5.173 4.142h-3.62s-2.068-1.037-1.546-1.552zm44.471 17.579c-.515 0 .515-2.068.515-2.068-.515-.515-4.651 0-4.651 0 0-.515.515-1.552.515-1.552-1.552-.515-4.135 2.074-4.135 2.074-1.552.515-2.068 0-4.657-.522-2.583-.515-4.135-1.552-7.24-1.552-3.098 0-6.203 1.037-6.203 1.037s-7.755-1.037-8.277-1.552c-.515-.515-.515-1.031-.515-1.031 1.037-.522 2.068-.522 2.068-.522-.515-.515-3.105-1.552-3.105-1.552 0-1.03 3.105-3.098 3.105-3.098-3.105-.522-6.725 1.552-6.725 1.552l-1.03-.522-.515-1.552c.515-1.03 9.308-1.546 9.308-1.546s-2.068-.522-1.552-1.037c.515-.515 4.135 0 4.135 0l-.515-1.037c.515-1.03 3.62-1.03 3.62-1.03 1.552 5.172 19.653 8.793 24.819 8.793 5.173 0 4.142 1.552 4.657 3.098.513 1.551-3.622 3.619-3.622 3.619zm17.967-16.729c-.468 3.848-2.77 7.488-5.949 10.78-.368-.816-.642-1.653-.642-2.322 0-2.068 1.166-4.209 2.068-6.21 2.769-6.148 2.094-10.506-2.844-16.173-4.109-4.711-15.768-4.422-19.388-5.975-2.757-1.178-5.431-4.738-6.301-6.331-.355-.649-.448-1.425-.161-2.101.254-.616.736-1.091 1.258-1.539 2.114-1.787 6.564-2.355 7.909-2.489.261-.027.502-.141.683-.328l.897-.89c.234-.241.368-.555.368-.89v-1.365c0-.435-.234-.83-.616-1.037l-4.671-2.549a.77.77 0 0 1-.402-.676V17.9a.88.88 0 0 0-.408-.743l-5.28-3.359s-.562-1.506-.127-2.804c.054-.154-.067-.321-.234-.335-.87-.047-3.071.007-3.68 1.746a.63.63 0 0 1-.522.402c-1.131.12-4.222.515-5.052 1.171a.766.766 0 0 1-.756.1c-.964-.361-2.964-.917-4.109.234-1.445 1.445-1.994 1.994-1.225 4.155.114.315.06.676-.141.95-1.445 1.967-6.511 8.806-8.324 12.587a6.411 6.411 0 0 0-.616 2.864c.027 1.653-.167 5.045-2.108 5.822 0 0-1.586 1.184-5.447 2.175-.198-16.059.805-34.942.805-34.942 6.484-3.265 32.46-3.265 32.46-3.265s26.05 0 32.554 3.265c.001 0 1.867 34.896.001 50.166z" fill-rule="nonzero"/><path d="M18.1191 127.5313c0 .3554-.6093.5332-1.828.5332h-.6095l-.622-.0127c-1.1341 0-1.917-.0423-2.3487-.127-.4316-.0846-.6474-.2666-.6474-.5459 0-.0761.1417-.2793.4253-.6093.2835-.3301.4972-.7702.641-1.3204.144-.55.2159-1.5192.2159-2.9072s-.1502-2.2195-.4507-2.4946c-.3004-.275-1.5065-.4126-3.6181-.4126-2.1117 0-3.341.165-3.688.4951-.2285.2116-.3428 1.0537-.3428 2.5264 0 1.4726.0529 2.4375.1587 2.8945.1058.457.2475.8125.4253 1.0664l.2539.292c.2624.2962.3935.4697.3935.5205 0 .3047-.2666.4867-.7998.546-.237.0253-1.187.038-2.85.038-1.6632 0-2.4947-.1904-2.4947-.5713 0-.2031.3259-.5205.9775-.9521.4317-.2878.6898-.675.7745-1.1617.0846-.4866.127-2.5242.127-6.1128 0-3.5885-.0636-5.6663-.1905-6.2334-.127-.567-.4422-.9965-.9458-1.2885-.5036-.292-.7554-.5607-.7554-.8062 0-.33 1.058-.4951 3.1738-.4951h1.2315c1.1849 0 1.7773.1989 1.7773.5967 0 .0338-.1438.2306-.4316.5903-.2878.3597-.4888.7998-.603 1.3203-.1143.5205-.1714 1.3732-.1714 2.5581 0 1.185.1396 1.9086.419 2.171.2792.2623 1.4662.3935 3.561.3935 2.0947 0 3.2902-.1439 3.5864-.4317.2116-.203.3174-.9542.3174-2.2534 0-1.2991-.0445-2.1264-.1333-2.482-.0889-.3554-.2264-.6558-.4126-.9013l-.2666-.292c-.2624-.2793-.3936-.4655-.3936-.5586 0-.3216.2328-.512.6983-.5712.4654-.0593 1.5022-.089 3.1103-.089 1.608 0 2.4121.1736 2.4121.5206 0 .2624-.1523.4993-.457.711-.6856.4654-1.058.7659-1.1172.9013-.1439.33-.2158 1.9297-.2158 4.7988l-.0889 6.2715c0 1.1764.0635 1.934.1904 2.2725.127.3385.3386.5966.6348.7744.6517.3978.9775.677.9775.8379zm15.0694-.914c.3724.2877.5586.493.5586.6156 0 .1228-.0635.2391-.1905.3492-.3639.33-1.1425.495-2.3359.495-.3893 0-.6919-.0655-.9077-.1967s-.4063-.3703-.5713-.7173c-.165-.347-.3026-.5205-.4126-.5205-.11.0085-.3555.1481-.7363.419-1.0664.7701-2.0863 1.1552-3.0596 1.1552h-.419c-1.3964 0-2.4078-.5924-3.0341-1.7773-.3216-.6179-.4846-2.1307-.4888-4.5386-.0042-2.4079-.0444-3.7324-.1206-3.9736-.0762-.2412-.3449-.4698-.8061-.6856-.4613-.2158-.692-.383-.692-.5014 0-.3132.1482-.5163.4444-.6094.6602-.2116 1.5023-.3174 2.5264-.3174.5924 0 .969.2412 1.1298.7236.2116.6179.3174 2.0926.3174 4.4243 0 2.3318.1016 3.7473.3047 4.2466.347.8549.9775 1.2823 1.8916 1.2823.474 0 .9458-.1228 1.4155-.3682.4698-.2455.8358-.5755 1.0982-.9902.2624-.4148.3935-1.5552.3935-3.4214 0-1.8662-.0613-3.0406-.184-3.523-.1228-.4824-.311-.8611-.565-1.1362-.2539-.275-.3808-.493-.3808-.6538 0-.3724.9944-.5586 2.9834-.5586.4147 0 .6855.091.8125.273.127.182.1904.5141.1904.9965l-.0381.749-.0635 3.377c0 2.2005.0635 3.5737.1905 4.1196.127.546.3766.967.749 1.2632zm7.1347 1.6757h-.6982c-2.4798 0-3.7197-.1904-3.7197-.5713 0-.22.2094-.4613.6284-.7236.419-.2624.694-.6242.8252-1.0855.1312-.4612.1968-1.7667.1968-3.9165 0-2.1497-.0614-3.3727-.1841-3.669-.1227-.2962-.3491-.5564-.6792-.7807-.3301-.2243-.4951-.4274-.4951-.6094 0-.182.1883-.5078.565-.9775.3765-.4697.641-1.0347.7934-1.6948.3893-1.642.9267-2.8353 1.6123-3.5801.8717-.9564 2.0947-1.4346 3.669-1.4346.7616 0 1.371.1333 1.828.4.457.2665.6856.6114.6856 1.0346 0 .4232-.1122.7363-.3364.9394-.2243.2032-.4613.3047-.711.3047-.2497 0-.6559-.1523-1.2187-.457-.5629-.3047-.9881-.457-1.276-.457-.4654 0-.823.2898-1.0727.8696-.2496.5798-.3745 1.2166-.3745 1.9106 0 .694.144 1.2019.4317 1.5235.1015.11.4782.3322 1.1299.6665.6516.3343.9775.6284.9775.8823 0 .1947-.3343.3914-1.003.5903-.6686.199-1.0833.4169-1.244.6539-.271.3977-.4063 1.682-.4063 3.853 0 2.1709.0783 3.4764.2348 3.9165.1566.44.4634.8252.9204 1.1553.457.33.6856.584.6856.7617 0 .33-.5882.495-1.7647.495zm9.5088 0h-.6982c-2.4798 0-3.7197-.1904-3.7197-.5713 0-.22.2094-.4613.6284-.7236.419-.2624.694-.6242.8252-1.0855.1312-.4612.1968-1.7667.1968-3.9165 0-2.1497-.0614-3.3727-.1841-3.669-.1228-.2962-.3491-.5564-.6792-.7807-.3301-.2243-.4951-.4274-.4951-.6094 0-.182.1883-.5078.5649-.9775.3766-.4697.6411-1.0347.7935-1.6948.3893-1.642.9267-2.8353 1.6123-3.5801.8717-.9564 2.0947-1.4346 3.6689-1.4346.7617 0 1.371.1333 1.8281.4.457.2665.6856.6114.6856 1.0346 0 .4232-.1122.7363-.3365.9394-.2242.2032-.4612.3047-.7109.3047-.2497 0-.656-.1523-1.2187-.457-.5629-.3047-.9882-.457-1.276-.457-.4654 0-.823.2898-1.0727.8696-.2496.5798-.3745 1.2166-.3745 1.9106 0 .694.1439 1.2019.4317 1.5235.1015.11.4781.3322 1.1298.6665s.9776.6284.9776.8823c0 .1947-.3343.3914-1.003.5903-.6686.199-1.0833.4169-1.244.6539-.271.3977-.4063 1.682-.4063 3.853 0 2.1709.0782 3.4764.2348 3.9165.1566.44.4634.8252.9204 1.1553.457.33.6856.584.6856.7617 0 .33-.5882.495-1.7647.495zm5.002-.7363c0-.1778.1925-.4063.5776-.6856s.6454-.7173.7808-1.314c.1354-.5966.2031-2.8627.2031-6.7983 0-3.9356-.0444-6.1657-.1333-6.6904-.0889-.5248-.3068-.9014-.6538-1.1299-.5586-.364-.8379-.5882-.8379-.6729v-.1523c0-.1439.1227-.2708.3682-.3809.7617-.33 1.7773-.495 3.0468-.495h.254c.4316 0 .6813.292.749.876.0084.076.0127.715.0127 1.9169v2.7295l-.0127.5205v.7998l-.0127.5205v4.0244c0 2.5052.0402 4.0562.1206 4.6529.0804.5966.2687 1.0304.565 1.3012.0338.0254.2115.1354.5331.3301s.4825.3936.4825.5967c0 .2962-.5248.4443-1.5743.4443l-.5205.0254h-.5205l-2.082.0381h-.2666c-.7194 0-1.0791-.1523-1.0791-.457zm15.996-7.8077v-.3935c0-.6263-.2242-1.1912-.6728-1.6948-.4485-.5036-.9987-.7554-1.6504-.7554h-.2412c-.1185.017-.1989.0254-.2412.0254-.5924 0-1.1531.3385-1.6821 1.0156-.529.6771-.7935 1.4007-.7935 2.171v.165c0 .2708.1608.4062.4825.4062.1269.0254.1946.038.203.038l.292.0128h.0762l.089-.0127 2.4501-.1397.457-.0507c.821 0 1.2315-.2624 1.2315-.7872zm-5.2812 3.3643c0 .9649.364 1.7731 1.0918 2.4248.7279.6517 1.6504.9775 2.7676.9775.4486 0 .857-.0655 1.2251-.1967.3682-.1312.7702-.2899 1.206-.4761.436-.1862.7089-.2793.8189-.2793.3385 0 .5078.182.5078.5459 0 .4909-.6263 1.0156-1.8789 1.5742-.8125.364-1.6842.546-2.6152.546h-.2793c-1.5912 0-2.9115-.4825-3.961-1.4474-.567-.5247-1.0071-1.1954-1.3203-2.0122-.3131-.8167-.4697-1.6948-.4697-2.6342l.0127-.292v-.292c0-.8125.1862-1.6123.5586-2.3994.3809-.7871.8336-1.4346 1.3584-1.9424 1.1087-1.0664 2.4248-1.6039 3.9482-1.6123 2.3021 0 3.834.8971 4.5957 2.6914.237.567.3555 1.0875.3555 1.5615v.254c0 .5839-.2412.9753-.7236 1.1742-.4825.199-1.6208.3618-3.415.4888-1.7943.127-2.7676.2116-2.92.254-.5755.1438-.8633.5077-.8633 1.0917zm20.0967-.7744v-.749c0-1.3627-.2793-2.4502-.8379-3.2627s-1.261-1.2188-2.1074-1.2188h-.127c-.4655 0-.9182.129-1.3584.3872-.44.2582-.7765.5861-1.0092.984-.2328.3977-.3492 1.5699-.3492 3.5165v1.0791l.0127.1397v.5332l.0127.127v.2665c.017.1862.0254.3216.0254.4063 0 .7194.2307 1.28.692 1.6821.4612.402 1.0811.603 1.8598.603h.127c.931 0 1.6736-.4274 2.228-1.2822.5543-.8548.8315-1.9254.8315-3.212zm-5.0781 5.459c-.4401 0-.6602.5691-.6602 1.7075 0 1.1383.0825 1.862.2476 2.1709.165.309.4316.5903.7998.8442.3682.254.5522.4698.5522.6475 0 .3809-.55.5713-1.6504.5713H78.587c-1.9297 0-2.8945-.1947-2.8945-.584 0-.1185.2454-.4147.7363-.8887.2624-.2539.4697-.768.622-1.5425.1524-.7744.2286-2.2407.2286-4.3989v-5.2685l-.0254-1.3584c0-.8295-.11-1.4346-.33-1.8155-.0847-.1438-.3048-.3406-.6602-.5903-.3555-.2497-.5332-.4634-.5332-.6411 0-.1777.1015-.3174.3047-.419.6601-.3216 1.5319-.4824 2.6152-.4824.2793 0 .565.1693.857.5078.292.3386.4548.5078.4887.5078.1354 0 .4084-.1163.8188-.349.4105-.2328.6285-.3577.6539-.3746.7278-.3385 1.3583-.5078 1.8916-.5078h.6601c.474 0 1.0114.1312 1.6123.3936 1.151.4993 1.9762 1.4345 2.4756 2.8056.2962.804.4443 1.587.4443 2.3487v.7109c0 .7871-.1608 1.5954-.4824 2.4248-.6348 1.642-1.7096 2.7591-3.2246 3.3516-.6432.2539-1.3922.3808-2.247.3808l-2.0313-.1523zm23.1816-1.1807c.3724.2878.5586.493.5586.6157 0 .1228-.0635.2391-.1904.3492-.364.33-1.1426.495-2.336.495-.3893 0-.6918-.0655-.9077-.1967-.2158-.1312-.4062-.3703-.5713-.7173-.165-.347-.3025-.5205-.4126-.5205-.11.0085-.3554.1481-.7363.419-1.0664.7701-2.0862 1.1552-3.0596 1.1552h-.4189c-1.3965 0-2.4079-.5924-3.0342-1.7773-.3216-.6179-.4845-2.1307-.4887-4.5386-.0043-2.4079-.0445-3.7324-.1206-3.9736-.0762-.2412-.345-.4698-.8062-.6856-.4613-.2158-.6919-.383-.6919-.5014 0-.3132.1481-.5163.4443-.6094.6602-.2116 1.5023-.3174 2.5264-.3174.5925 0 .969.2412 1.1299.7236.2116.6179.3174 2.0926.3174 4.4243 0 2.3318.1015 3.7473.3047 4.2466.347.8549.9775 1.2823 1.8916 1.2823.474 0 .9458-.1228 1.4155-.3682.4697-.2455.8358-.5755 1.0981-.9902.2624-.4148.3936-1.5552.3936-3.4214 0-1.8662-.0614-3.0406-.184-3.523-.1228-.4824-.3111-.8611-.565-1.1362-.254-.275-.3809-.493-.3809-.6538 0-.3724.9945-.5586 2.9834-.5586.4147 0 .6855.091.8125.273.127.182.1904.5141.1904.9965l-.038.749-.0635 3.377c0 2.2005.0634 3.5737.1904 4.1196.127.546.3766.967.749 1.2632zm7.1348 1.6758h-.6983c-2.4798 0-3.7197-.1904-3.7197-.5713 0-.22.2095-.4613.6284-.7236.419-.2624.694-.6242.8252-1.0855.1312-.4612.1968-1.7667.1968-3.9165 0-2.1497-.0613-3.3727-.184-3.669-.1228-.2962-.3492-.5564-.6793-.7807-.33-.2243-.495-.4274-.495-.6094 0-.182.1882-.5078.5649-.9775.3766-.4697.641-1.0347.7934-1.6948.3893-1.642.9268-2.8353 1.6123-3.5801.8718-.9564 2.0947-1.4346 3.669-1.4346.7617 0 1.371.1333 1.828.4.4571.2665.6856.6114.6856 1.0346 0 .4232-.1121.7363-.3364.9394-.2243.2032-.4613.3047-.711.3047-.2496 0-.6559-.1523-1.2187-.457-.5628-.3047-.9881-.457-1.2759-.457-.4655 0-.823.2898-1.0727.8696-.2497.5798-.3745 1.2166-.3745 1.9106 0 .694.1439 1.2019.4316 1.5235.1016.11.4782.3322 1.1299.6665s.9775.6284.9775.8823c0 .1947-.3343.3914-1.0029.5903-.6686.199-1.0833.4169-1.2441.6539-.2709.3977-.4063 1.682-.4063 3.853 0 2.1709.0783 3.4764.2349 3.9165.1566.44.4634.8252.9204 1.1553.457.33.6855.584.6855.7617 0 .33-.5882.495-1.7646.495zm9.5088 0h-.6983c-2.4798 0-3.7197-.1904-3.7197-.5713 0-.22.2095-.4613.6284-.7236.419-.2624.694-.6242.8252-1.0855.1312-.4612.1968-1.7667.1968-3.9165 0-2.1497-.0614-3.3727-.184-3.669-.1228-.2962-.3492-.5564-.6793-.7807-.33-.2243-.4951-.4274-.4951-.6094 0-.182.1883-.5078.565-.9775.3766-.4697.641-1.0347.7934-1.6948.3893-1.642.9268-2.8353 1.6123-3.5801.8718-.9564 2.0947-1.4346 3.669-1.4346.7617 0 1.371.1333 1.828.4.4571.2665.6856.6114.6856 1.0346 0 .4232-.1121.7363-.3364.9394-.2243.2032-.4613.3047-.711.3047-.2496 0-.6559-.1523-1.2187-.457-.5628-.3047-.9881-.457-1.2759-.457-.4655 0-.823.2898-1.0727.8696-.2497.5798-.3745 1.2166-.3745 1.9106 0 .694.1438 1.2019.4316 1.5235.1016.11.4782.3322 1.1299.6665s.9775.6284.9775.8823c0 .1947-.3343.3914-1.0029.5903-.6686.199-1.0833.4169-1.2441.6539-.2709.3977-.4063 1.682-.4063 3.853 0 2.1709.0783 3.4764.2349 3.9165.1565.44.4633.8252.9204 1.1553.457.33.6855.584.6855.7617 0 .33-.5882.495-1.7646.495z"/></g></svg>