<svg viewBox="0 0 126 129" xmlns="http://www.w3.org/2000/svg"><g fill="#000" fill-rule="evenodd" opacity=".6332"><path d="M98.4438 3.654C91.1838 0 62.1228 0 62.1228 0s-28.961 0-36.201 3.654c0 0-2.074 38.917 0 55.941.248 2.034.95 4.008 2.001 5.922 7.729 14.112 34.2 24.484 34.2 24.484s12.292-4.804 22.597-12.319c6.892-5.025 12.894-11.262 13.724-18.087 2.075-17.024 0-55.941 0-55.941zm-35.317 58.831l-1.552 1.546c-1.92-.241-2.389.636-2.335 1.646l-1.526.569-1.338-.669h-2.007l-.027-.027c-.033-.602-1.031-3.58-1.031-3.58l6.21-3.346a.947.947 0 0 1 .984.047c.89.602 2.75 1.874 3.138 2.262.514.515-.516 1.552-.516 1.552zm24.778 7.234c-.02.02-.04.033-.06.047-2.021 1.954-4.329 3.781-6.718 5.433l-1.332-.923h-6.022s-1.338-2.007-2.677-3.346c-.676-.676-2.723-2.382-4.584-3.908-.04-1.071-1.318-2.991-1.318-2.991v-1.546s1.546-3.62 3.613-4.651c2.068-1.03 3.098 4.135 3.098 4.135l.515-1.037c1.037 2.068 3.105 3.613 3.62 4.135.515.515 0 2.061 0 2.061l1.03-1.031c.515-.515 3.613 4.135 3.613 4.135v-2.583c1.151 1.144 2.007 2.57 2.382 3.239-.114-.823.201-2.723.201-2.723s1.037 1.03 2.068 1.546c.81.408 1.92.181 2.375.06-.616-.094-1.686-2.181-.308-2.643 1.017-.335 1.593.435 2.155.856a31.254 31.254 0 0 1-1.673 1.74c.009-.005.016-.005.022-.005zm6.786-11.63c-.328 2.71-1.566 5.32-3.386 7.769-2.161-2.215-8.19-8.538-6.484-8.538 2.068 0 4.135-1.037 4.135-1.037s-2.583-.515-1.037-1.03c.087-.027.167-.054.241-.074.616-.194.763-1.01.234-1.365-2.268-1.539-7.862-3.593-8.204-3.72 6.698 1.024 8.244-.522 8.766-1.037.515-.515-.522-1.037-.522-1.037-6.712 1.552-11.362-1.546-11.362-1.546 3.098-.515 4.651-2.068 4.651-2.068-6.196 1.03-12.399-4.135-12.399-4.135 5.681 0 9.816-2.583 9.816-2.583-3.098 0-4.651-1.031-4.651-1.031 5.681-.515 12.399-5.166 12.399-5.166-1.74.629-3.098 0-3.098 0 3.098-1.031 3.613-4.129 3.613-4.129-.917 1.412-6.196 3.098-6.196 3.098-2.583 0-1.552-1.037-1.552-1.037 10.847-3.098 9.301-7.227 9.301-7.227-.522 1.546-1.037 1.03-1.037 1.03.515-1.546 0-2.583 0-2.583-.656 1.238-15.484 5.454-19.499 5.454-2.65 0-12.011 4.363-12.011 4.363l-3.098-2.068c0-12.914-12.393-5.681-12.393-5.681-2.583 0-7.233 1.546-8.264 2.583-1.037 1.03.254 2.322.254 2.322 3.098-3.098 9.301 1.552 9.301 1.552-7.963 17.799 6.584 23.28 9.368 24.149a.597.597 0 0 1 .422.562c.06 1.961 1.827 5.507 1.827 5.507l-2.576 2.061h-1.552c-3.158-1.974-4.202-.629-4.523.114h-1.512l-2.007 1.338s.669.669-1.338 0-4.015 0-4.015 0l-4.336 1.358c-1.218-1.974-2.034-4.042-2.289-6.17-1.867-15.27 0-50.166 0-50.166 6.484-3.265 32.46-3.265 32.46-3.265s26.05 0 32.554 3.265c-.001.002 1.859 34.898-.001 50.168z" fill-rule="nonzero"/><path d="M5.0049 113.4766v4.2529c0 .6178.0698.9881.2095 1.1108.1396.1228.438.1841.895.1841h.5459c1.261 0 2.2343-.3153 2.9199-.9458.6855-.6305 1.0283-1.4578 1.0283-2.482v-.5204c0-1.0495-.3364-1.881-1.0093-2.4947-.6728-.6136-1.5509-.9204-2.6342-.9204h-.7871c-.5333 0-.8612.0868-.984.2603-.1227.1735-.184.6919-.184 1.5552zM7.29 110.328c3.0723 0 5.0485.9395 5.9287 2.8184.237.5078.3555 1.1426.3555 1.9043 0 1.4219-.639 2.6618-1.917 3.7197-.711.5925-1.0664 1.0876-1.0664 1.4854 0 .1185.419.8865 1.2569 2.3042.8379 1.4176 1.4493 2.3676 1.8344 2.85.3851.4825.8654.84 1.441 1.0728.5755.2328.8632.4507.8632.6538 0 .601-.6559.9014-1.9677.9014-.9564 0-1.6716-.2328-2.1456-.6983-.33-.3216-.9902-1.3668-1.9804-3.1357-.9903-1.7689-1.5488-2.7337-1.6758-2.8945-.4486-.567-1.1299-.8506-2.044-.8506-.3893 0-.6559.1756-.7998.5268-.1438.3513-.2158 1.1363-.2158 2.355 0 1.2188.0825 2.027.2476 2.4248.165.3978.4168.7766.7554 1.1363.3385.3597.5078.5691.5078.6284 0 .2877-.5375.4316-1.6123.4316l-.4317-.0127-.419-.0254c-.1861-.0084-.4739-.0127-.8632-.0127-1.989 0-2.9834-.1692-2.9834-.5078 0-.3385.1396-.5924.419-.7617.7109-.4401 1.0917-.7067 1.1425-.7998.1947-.3555.292-1.333.292-2.9326l.0254-.8887.0127-.8887v-.8886l-.0254-1.3203c0-3.4447-.0825-5.459-.2475-6.043-.165-.584-.4613-1.005-.8887-1.2632-.4274-.2581-.6411-.4845-.6411-.6792 0-.3385.677-.5078 2.0312-.5078l.4317-.0127c.2962-.0085.5882-.0127.876-.0127l2.6152-.0762H7.29zm17.1387 11.794h-.2158c-1.1087 0-2.0334.2475-2.774.7426-.7405.4952-1.1108 1.1109-1.1108 1.8472v.254c0 .4316.1333.8188.4 1.1615.2665.3428.6114.5142 1.0346.5142l.1523.0254h.3809c.8802 0 1.5996-.3597 2.1582-1.0791.2454-.3132.3682-.9564.3682-1.9297v-.2285l.0127-.3047v-.3047c0-.4655-.1355-.6982-.4063-.6982zm-6.17-4.1006c0-.6263.4973-1.187 1.4918-1.6821.9945-.4952 2.0249-.7427 3.0913-.7427h.1016c1.0156 0 1.828.1227 2.4375.3681 1.2356.491 1.9423 1.532 2.12 3.123.017.1609.0255 1.2252.0255 3.193 0 1.9677.0529 3.1209.1587 3.4594.1058.3386.3935.5883.8632.749.4698.1609.7046.3132.7046.457 0 .3048-.1523.5375-.457.6983-.6094.3216-1.2082.4825-1.7964.4825-.5882 0-1.0262-.1355-1.314-.4063-.5162-.4824-.7913-.7236-.8251-.7236-.0339 0-.512.2137-1.4346.641-.9225.4275-1.7308.6412-2.4248.6412-1.041 0-1.8578-.2878-2.4502-.8633-.5925-.5755-.8887-1.2737-.8887-2.0947v-.3174c0-.8802.3809-1.6546 1.1426-2.3232.7617-.6687 2.1328-1.1892 4.1133-1.5616.7194-.1354 1.1722-.2623 1.3584-.3808.3724-.237.5586-.7194.5586-1.4473s-.1947-1.2864-.584-1.6758c-.3893-.3893-.9099-.584-1.5615-.584-.6517 0-1.2802.3788-1.8853 1.1363-.6051.7575-1.1574 1.1362-1.6567 1.1362-.5925 0-.8887-.4274-.8887-1.2822zm18.8018 10.1435h-.292c-.3977 0-.7913-.3681-1.1806-1.1045-.1947-.3724-.7913-1.8323-1.79-4.3798-.9988-2.5476-1.6081-4.0181-1.8282-4.4117-.22-.3935-.5628-.7447-1.0283-1.0537-.4655-.3089-.6982-.5438-.6982-.7046 0-.2623.1862-.4316.5586-.5078.3724-.0761 1.223-.1142 2.5517-.1142 1.3288 0 1.9932.1904 1.9932.5713 0 .0254-.0466.1629-.1397.4126-.093.2496-.1396.5226-.1396.8188 0 1.1595.6601 3.267 1.9805 6.3223.2454.5586.4189.8379.5205.8379.1015 0 .2666-.254.495-.7618 1.3627-3.013 2.044-5.1035 2.044-6.2714 0-.2878-.11-.5925-.33-.9141-.2201-.3216-.3301-.4867-.3301-.4951 0-.364.787-.546 2.3613-.546h.3047c1.0325 0 1.5488.1778 1.5488.5333 0 .3047-.2243.603-.6728.895-.4486.292-.7914.6538-1.0284 1.0855-.11.1946-.6728 1.5509-1.6884 4.0688-1.0157 2.518-1.7012 4.1006-2.0567 4.748-.3555.6475-.7405.9712-1.1553.9712zm15.8438-8.417v-.3935c0-.6263-.2243-1.1912-.6729-1.6948-.4485-.5036-.9986-.7554-1.6503-.7554h-.2413c-.1184.017-.1988.0254-.2412.0254-.5924 0-1.1531.3385-1.6821 1.0156-.529.6771-.7935 1.4007-.7935 2.171v.165c0 .2708.1609.4062.4825.4062.127.0254.1946.038.203.038l.292.0128h.0763l.0888-.0127 2.4502-.1397.457-.0507c.821 0 1.2315-.2624 1.2315-.7872zm-5.2813 3.3643c0 .9649.364 1.7731 1.0918 2.4248.728.6517 1.6504.9775 2.7676.9775.4486 0 .857-.0655 1.2251-.1967.3682-.1312.7702-.2899 1.206-.4761.436-.1862.7089-.2793.819-.2793.3385 0 .5077.182.5077.5459 0 .4909-.6263 1.0156-1.8789 1.5742-.8125.364-1.6842.546-2.6152.546h-.2793c-1.5912 0-2.9115-.4825-3.961-1.4474-.567-.5247-1.0071-1.1954-1.3203-2.0122-.3131-.8167-.4697-1.6948-.4697-2.6342l.0127-.292v-.292c0-.8125.1862-1.6123.5586-2.3994.3809-.7871.8337-1.4346 1.3584-1.9424 1.1087-1.0664 2.4248-1.6039 3.9483-1.6123 2.302 0 3.834.8971 4.5957 2.6914.237.567.3554 1.0875.3554 1.5615v.254c0 .5839-.2412.9753-.7236 1.1742-.4824.199-1.6208.3618-3.415.4888-1.7943.127-2.7676.2116-2.92.254-.5755.1438-.8633.5077-.8633 1.0917zm12.0225 4.7861c-1.1934 0-1.79-.1692-1.79-.5078 0-.2793.1565-.5078.4697-.6855.567-.3216.8971-.6115.9902-.8697.0931-.258.1397-1.481.1397-3.6689 0-2.1878-.0656-3.47-.1968-3.8467-.1312-.3766-.3703-.6876-.7173-.933-.347-.2455-.5205-.4444-.5205-.5968 0-.1523.1143-.2962.3428-.4316.5332-.3132 1.3795-.4697 2.539-.4697.347 0 .6179.1185.8125.3554.0678.0847.163.2688.2857.5523.1227.2835.2052.4253.2475.4253.1609-.0085.4105-.1227.749-.3428 1.168-.7871 2.226-1.1807 3.1739-1.1807h.4316c.6856 0 1.3034.1693 1.8536.5079.55.3385.9754.8463 1.2758 1.5234.3005.677.4507 2.1518.4507 4.4243 0 2.2725.0487 3.542.146 3.8086.0973.2666.3724.5142.8252.7427.4528.2285.6792.4528.6792.6728 0 .3809-1.2018.5713-3.6055.5713h-.3808c-.7617 0-1.1426-.182-1.1426-.5459 0-.0762.0931-.2602.2793-.5522.1862-.292.3131-.6157.3809-.9712.0677-.3555.1015-1.5256.1015-3.5103s-.1227-3.2605-.3681-3.8276c-.3386-.7787-.9014-1.168-1.6885-1.168-.5755 0-1.132.1333-1.6695.4-.5374.2665-.9267.6432-1.168 1.1298-.2411.4867-.3617 1.6504-.3617 3.4912s.0507 2.9538.1523 3.3389c.1016.385.2243.6961.3682.933l.4697.7618c0 .33-.6644.4951-1.9932.4951l-.7744-.0254h-.787zm23.334-8.6074c-.3555 0-.8485-.3681-1.479-1.1045-.6305-.7363-1.3584-1.1045-2.1836-1.1045-.8252 0-1.517.4084-2.0757 1.2251-.5586.8168-.8379 1.9741-.8379 3.4722 0 1.498.345 2.6681 1.0347 3.5103.6898.842 1.589 1.2631 2.6977 1.2631.6094 0 1.1193-.0761 1.5298-.2285.4105-.1523.7914-.3152 1.1426-.4888.3512-.1735.5988-.2602.7427-.2602.2454 0 .3681.1608.3681.4824 0 .491-.495.9776-1.4853 1.46-.9902.4824-1.9508.7236-2.8818.7236-1.8112 0-3.267-.567-4.3672-1.7012-.4486-.4655-.8252-1.0642-1.13-1.7963-.3046-.7321-.457-1.5171-.457-2.355v-.7364c0-.7363.165-1.498.4952-2.2851.6517-1.5404 1.7011-2.6068 3.1484-3.1992.838-.3386 1.6716-.5078 2.501-.5078h.292c1.1426 0 2.1116.1988 2.9072.5966.6432.3217.9648.859.9648 1.6123 0 .4994-.0994.8612-.2983 1.0855-.1989.2243-.4084.3364-.6284.3364zm3.085 8.2647c0-.1778.1925-.4063.5776-.6856.385-.2793.6453-.7173.7808-1.314.1354-.5966.203-2.8627.203-6.7983 0-3.9356-.0444-6.1657-.1332-6.6904-.0889-.5248-.3068-.9014-.6538-1.1299-.5586-.364-.838-.5882-.838-.6729v-.1523c0-.1439.1228-.2708.3682-.3809.7618-.33 1.7774-.495 3.047-.495h.2538c.4317 0 .6813.292.749.876.0085.076.0127.715.0127 1.9169v2.7295l-.0127.5205v.7998l-.0126.5205v4.0244c0 2.5052.0402 4.0562.1206 4.6529.0804.5966.2687 1.0304.5649 1.3012.0339.0254.2116.1354.5332.3301s.4824.3936.4824.5967c0 .2962-.5247.4443-1.5742.4443l-.5205.0254h-.5205l-2.082.0381h-.2666c-.7195 0-1.0791-.1523-1.0791-.457zm14.7011-5.4336h-.2158c-1.1087 0-2.0334.2475-2.774.7426-.7405.4952-1.1108 1.1109-1.1108 1.8472v.254c0 .4316.1333.8188.4 1.1615.2665.3428.6114.5142 1.0346.5142l.1524.0254h.3808c.8802 0 1.5996-.3597 2.1582-1.0791.2455-.3132.3682-.9564.3682-1.9297v-.2285l.0127-.3047v-.3047c0-.4655-.1354-.6982-.4063-.6982zm-6.1699-4.1006c0-.6263.4972-1.187 1.4917-1.6821.9945-.4952 2.0249-.7427 3.0913-.7427h.1016c1.0156 0 1.8281.1227 2.4375.3681 1.2357.491 1.9424 1.532 2.12 3.123.017.1609.0255 1.2252.0255 3.193 0 1.9677.0529 3.1209.1587 3.4594.1058.3386.3935.5883.8633.749.4697.1609.7045.3132.7045.457 0 .3048-.1523.5375-.457.6983-.6094.3216-1.2082.4825-1.7964.4825-.5882 0-1.0262-.1355-1.314-.4063-.5162-.4824-.7913-.7236-.8251-.7236-.0339 0-.512.2137-1.4346.641-.9225.4275-1.7308.6412-2.4248.6412-1.041 0-1.8578-.2878-2.4502-.8633-.5925-.5755-.8887-1.2737-.8887-2.0947v-.3174c0-.8802.3809-1.6546 1.1426-2.3232.7617-.6687 2.1328-1.1892 4.1133-1.5616.7194-.1354 1.1722-.2623 1.3584-.3808.3724-.237.5586-.7194.5586-1.4473s-.1947-1.2864-.584-1.6758c-.3893-.3893-.9098-.584-1.5615-.584-.6517 0-1.2801.3788-1.8853 1.1363-.6051.7575-1.1574 1.1362-1.6567 1.1362-.5925 0-.8887-.4274-.8887-1.2822zm30.0625-2.0694c.821 0 1.2314.2286 1.2314.6856 0 .0931-.1079.311-.3237.6538-.2158.3428-.4676.8146-.7554 1.4155-.2877.601-.821 2.027-1.5996 4.2784-.7786 2.2513-1.2272 3.4912-1.3457 3.7197-.3893.7363-.9267 1.1045-1.6123 1.1045-.3131 0-.6305-.309-.9521-.9268-.3216-.6178-.8273-1.809-1.5171-3.5737-.6898-1.7647-1.1278-2.647-1.314-2.647-.0254 0-.4147.9246-1.168 2.774-.7532 1.8492-1.2018 2.9093-1.3456 3.1801-.4063.7702-.8993 1.1553-1.479 1.1553-.5798 0-1.1998-.9818-1.86-2.9453l-.3173-.9903c-.9056-2.9114-1.7477-4.9088-2.5264-5.9921-.474-.6602-.7109-1.058-.7109-1.1934 0-.1354.0677-.2624.2031-.3809.2878-.2539.7956-.3808 1.5235-.3808h.4824c1.024 0 1.6588.22 1.9043.6601.093.1693.1671.5438.2221 1.1236.055.5797.127 1.1256.2159 1.6377.0888.512.3322 1.3943.73 2.647.3977 1.2525.7744 1.8788 1.1298 1.8788.2793 0 .6179-.55 1.0157-1.6504.3977-1.1002.5966-2.1116.5966-3.0341 0-.22-.0444-.512-.1333-.876-.0888-.364-.1333-.6136-.1333-.749 0-.5078.3132-.9014.9395-1.1807.3047-.1354.7638-.2031 1.3774-.2031.6136 0 1.1236.2412 1.5298.7236.2116.254.3174.6178.3174 1.0918l-.0254.3682-.0127.4062c0 .237.1862.9712.5586 2.2027.3724 1.2314.6411 2.0143.8062 2.3486.165.3343.3364.5015.5141.5015.364 0 .785-.6983 1.2632-2.0948.4782-1.3965.7173-2.594.7173-3.5927l-.1016-1.2823c0-.5755.6517-.8633 1.9551-.8633z"/></g></svg>