<svg viewBox="0 0 109 134" xmlns="http://www.w3.org/2000/svg"><g fill="#000" fill-rule="evenodd" opacity=".6332"><path d="M90.4476 3.652C83.1856 0 54.1266 0 54.1266 0s-28.966 0-36.207 3.652c0 0-2.069 38.917 0 55.945.838 6.859 6.869 13.128 13.79 18.166 10.241 7.469 22.417 12.238 22.417 12.238s16.138-6.3 26.928-15.766c4.924-4.314 8.741-9.3 9.393-14.638 2.069-17.028 0-55.945 0-55.945zm-3.755 54.435c-.393 3.238-2.079 6.321-4.5 9.176.093-4.034-.683-8.7-2.648-14.069 0 0-4.053-10.894-5.608-14.004-2-4-4.844-8.072-4.844-9.706 0-1.635 1.043-5.19 1.752-6.186.495-.696 1.935-2.576 1.386-3.124-.548-.548-3.01.941-3.01.941-.093.093-8.7 4.355-4.355 13.055 4.355 8.69 6.528 13.583 5.979 14.131 0 0-13.045-5.259-19.024 1.259-4.417 4.821-3.417 7.872-3.417 8.959 0 1.087 1.783 21.314 22.441 8.259 0 0-2.172 13.055-15.217 13.055s-13.045-12.508-13.045-12.508.342-11.206 6.065-18.938c8.289-11.198 10.289-16.198 10.324-18.487.101-6.516-1.035-8.711-1.035-8.711s-2.309-9.313-12.365-6.861c0 0-7.614-1.086-11.421 5.979 0 0-7.603 5.431-3.807 9.238 0 0-.269 1.355.279 1.903.538.538-.548-1.634.538-1.634 0 0 1.635.548 2.721 0 1.086-.538-1.635 1.086-1.086 2.172 0 0-2.462.083-3.497 1.117-.517.517.238 2.69-.859 3.238-1.086.538-2.71 2.721-2.172 3.807 0 0 1.179-1.914 2.172-2.317a.234.234 0 0 1 .321.217c.01.559.217 1.81 1.852 2.638-.093-.103-1.097-1.221-.228-2.803.434-.776.579-1.686.497-2.576a6.775 6.775 0 0 1-.031-.652c0-1.086 1.945-1.572 1.945-1.572s3.807 5.431 13.045-4.893c0 0 2.172-.548 3.259-2.183 0 0 1.634 7.076-7.603 17.4 0 0-11.71 12.641-10.779 28.366-4.717-3.993-8.431-8.669-9.041-13.686-1.862-15.269 0-50.162 0-50.162 6.486-3.269 32.462-3.269 32.462-3.269s26.048 0 32.555 3.269c-.001 0 1.861 34.893-.001 50.162zm-18.838-.818s-8.7 5.979-10.324 2.172c0 0-.548-2.721 3.259-3.259 3.807-.547 7.065 1.087 7.065 1.087z" fill-rule="nonzero"/><path d="M8.5596 112.2578c-.694-.474-1.4748-.711-2.3423-.711-.8675 0-1.5763.2265-2.1265.6793-.5501.4528-.8252 1.0875-.8252 1.9043 0 .8167.4105 1.5382 1.2315 2.1645.4909.3809 1.4938.8972 3.0088 1.5489 1.515.6516 2.5686 1.2526 3.161 1.8027 1.1342 1.0495 1.7013 2.1413 1.7013 3.2754v.457c0 1.405-.5586 2.5475-1.6758 3.4277-.5163.4063-1.1595.73-1.9297.9712-.7702.2412-1.5404.3618-2.3106.3618h-.4697c-1.7435 0-3.2711-.2623-4.583-.787-.5924-.237-.8887-.8845-.8887-1.9424v-.4444c0-1.2526.2159-1.8789.6475-1.8789.2962 0 .6982.402 1.206 1.206.5079.8041 1.094 1.4092 1.7584 1.8155.6643.4063 1.4663.6094 2.4057.6094.9395 0 1.697-.2476 2.2725-.7427.5755-.4951.8633-1.1066.8633-1.8345 0-.9987-.4655-1.8408-1.3965-2.5263-.3978-.2878-1.3965-.802-2.9961-1.5425-1.5996-.7406-2.7083-1.4325-3.3262-2.0757-.8463-.8802-1.2695-1.955-1.2695-3.2246s.4528-2.3233 1.3584-3.1611c.4993-.4655 1.1214-.8274 1.8662-1.0855.7448-.2581 1.5065-.3872 2.2851-.3872h.4698c.3216 0 .7786.055 1.371.165l.4444.0889c.5247.1016.8083.1566.8506.165l.3935.0254.3809.0127c.3555.0254.6051.0677.749.127.4994.2031.749.9098.749 2.1201 0 1.2103-.237 1.8154-.7109 1.8154-.237 0-.5924-.3385-1.0664-1.0156-.474-.677-.8929-1.1383-1.2568-1.3838zm6.0302 15.2979c0-.1778.1926-.4063.5777-.6856.385-.2793.6453-.7173.7807-1.314.1355-.5966.2032-2.8627.2032-6.7983 0-3.9356-.0445-6.1657-.1333-6.6904-.0889-.5248-.3068-.9014-.6538-1.1299-.5586-.364-.838-.5882-.838-.6729v-.1523c0-.1439.1228-.2708.3682-.3809.7618-.33 1.7774-.495 3.047-.495h.2538c.4317 0 .6813.292.749.876.0085.076.0127.715.0127 1.9169v2.7295l-.0127.5205v.7998l-.0127.5205v4.0244c0 2.5052.0402 4.0562.1206 4.6529.0805.5966.2688 1.0304.565 1.3012.0338.0254.2116.1354.5332.3301s.4824.3936.4824.5967c0 .2962-.5247.4443-1.5742.4443l-.5205.0254h-.5205l-2.082.0381h-.2667c-.7194 0-1.079-.1523-1.079-.457zm11.959-10.0674c0 .9056.7025 3.0553 2.1075 6.4492.1946.474.3512.711.4697.711s.3385-.3428.6601-1.0284c1.168-2.4713 1.752-4.3375 1.752-5.5986 0-.364-.0593-.6602-.1777-.8887l-.1397-.2285c-.2031-.2708-.3047-.4613-.3047-.5713 0-.33.5374-.4951 1.6123-.4951h.8125c1.0241 0 1.5362.1946 1.5362.584 0 .22-.2095.5565-.6285 1.0093-.419.4528-.7215.8907-.9077 1.314-.1862.4231-.8654 2.1898-2.0376 5.3002-1.1722 3.1104-2.0799 5.2347-2.7231 6.373-.6433 1.1384-1.242 1.9572-1.7964 2.4566-.5544.4994-1.1235.749-1.7075.749h-.3301c-.4401 0-.8146-.1248-1.1235-.3745-.309-.2497-.4634-.5078-.4634-.7744 0-.2666.1079-.4824.3237-.6475.2158-.165.5015-.2475.857-.2475l.292.0254c.1269.0084.3215.0127.584.0127.5924 0 1.1383-.3809 1.6376-1.1426.4994-.7617.749-1.532.749-2.3106s-1.206-3.7197-3.6181-8.8232c-.22-.4655-.5438-.948-.9712-1.4473-.4274-.4993-.6411-.8463-.6411-1.041 0-.3216.2243-.548.6728-.6792.4486-.1312 1.1701-.1968 2.1646-.1968.9944 0 1.4917.2159 1.4917.6475-.1016.4401-.1524.7279-.1524.8633zm15.6026 8.836l1.9297-.292c.22 0 .33.1713.33.514 0 .3429-.3258.6962-.9775 1.0601-.6517.364-1.3372.546-2.0566.546h-.254c-.567 0-1.079-.1482-1.536-.4444-.4571-.2962-.7914-.6601-1.003-1.0918-.364-.7532-.546-2.1815-.546-4.2847 0-2.1032-.074-3.4171-.222-3.9419-.1482-.5247-.3407-.8844-.5777-1.079-.4401-.3555-.6602-.5502-.6602-.584 0-.22.1143-.4063.3428-.5586.584-.3894.9035-.6115.9585-.6665.055-.055.3787-.747.9712-2.0757.2962-.6602.6326-.9903 1.0093-.9903.3766 0 .6284.1355.7553.4063.0339.0677.108.4359.2222 1.1045.1143.6686.2772 1.0981.4888 1.2886.2116.1904.6813.3724 1.4092.5459.7278.1735 1.0917.421 1.0917.7426 0 .3217-.402.5629-1.206.7237-.804.1608-1.2907.3681-1.46.622-.2962.4317-.4443 1.6504-.4443 3.6563 0 2.0059.093 3.2711.2793 3.7959.237.6686.622 1.003 1.1553 1.003zm4.3037.9775c0-.1524.182-.4296.5459-.8316.364-.402.5903-.8061.6792-1.2124.0888-.4062.1333-2.5475.1333-6.4238s-.0889-6.225-.2666-7.046c-.0847-.3977-.2624-.6897-.5332-.8759-.491-.347-.7364-.5332-.7364-.5586 0-.3131.165-.5332.4952-.6601.6263-.2455 1.3584-.3682 2.1962-.3682h.419c.3893 0 .6665.1566.8315.4697.165.3132.2476 1.003.2476 2.0694l-.0127.4697a34.7707 34.7707 0 0 0-.0127.9394l-.0254.9395v.9394c0 1.1088.1947 1.6631.584 1.6631.0423-.0084.2581-.0973.6475-.2666 1.1764-.5247 2.1624-.787 2.958-.787 1.4896 0 2.5348.5966 3.1357 1.79.3978.8125.5967 2.8098.5967 5.9921 0 1.2273.0444 1.991.1333 2.2915s.33.6115.7236.9332c.3936.3216.5904.5247.5904.6093 0 .2624-.1714.4401-.5142.5332-.3428.0931-1.2166.1397-2.6216.1397h-.4443c-.9226 0-1.3838-.1862-1.3838-.5586 0-.0846.11-.2984.33-.6411.2201-.3428.364-.73.4317-1.1616.0677-.4317.1016-1.5616.1016-3.3897 0-1.8281-.0847-2.9792-.254-3.4531-.584-.7617-1.2314-1.2272-1.9423-1.3965-.9733 0-1.752.347-2.336 1.041-.4316.5078-.6474 1.6652-.6474 3.4722s.0423 2.958.127 3.4531c.0846.4951.2687.9437.5522 1.3457.2835.402.4253.6496.4253.7427 0 .3047-.859.457-2.5772.457-1.718 0-2.5771-.22-2.5771-.6601zm23.4736-7.5538v-.3935c0-.6263-.2243-1.1912-.6728-1.6948-.4486-.5036-.9987-.7554-1.6504-.7554h-.2412c-.1185.017-.199.0254-.2413.0254-.5924 0-1.1531.3385-1.682 1.0156-.529.6771-.7935 1.4007-.7935 2.171v.165c0 .2708.1608.4062.4824.4062.127.0254.1946.038.2031.038l.292.0128h.0762l.0888-.0127 2.4502-.1397.457-.0507c.821 0 1.2315-.2624 1.2315-.7872zm-5.2812 3.3643c0 .9649.3639 1.7731 1.0918 2.4248.7278.6517 1.6503.9775 2.7675.9775.4486 0 .857-.0655 1.2251-.1967.3682-.1312.7702-.2899 1.206-.4761.436-.1862.709-.2793.819-.2793.3385 0 .5077.182.5077.5459 0 .4909-.6262 1.0156-1.8789 1.5742-.8125.364-1.6842.546-2.6152.546h-.2793c-1.5911 0-2.9114-.4825-3.961-1.4474-.567-.5247-1.007-1.1954-1.3202-2.0122-.3132-.8167-.4698-1.6948-.4698-2.6342l.0127-.292v-.292c0-.8125.1862-1.6123.5586-2.3994.3809-.7871.8337-1.4346 1.3584-1.9424 1.1088-1.0664 2.4248-1.6039 3.9483-1.6123 2.302 0 3.834.8971 4.5957 2.6914.237.567.3554 1.0875.3554 1.5615v.254c0 .5839-.2412.9753-.7236 1.1742-.4824.199-1.6208.3618-3.415.4888-1.7943.127-2.7676.2116-2.92.254-.5755.1438-.8632.5077-.8632 1.0917zm16.5927 4.3926c0 .33-.766.4951-2.2978.4951h-1.3457l-.5332-.0254-.7998-.0127c-.8972 0-1.3457-.1608-1.3457-.4824 0-.2285.201-.4718.603-.73.402-.2581.6728-.5924.8125-1.003.1396-.4104.2095-1.6228.2095-3.6371 0-2.0144-.0656-3.2373-.1968-3.669-.1312-.4316-.3364-.7405-.6157-.9267-.4994-.3301-.749-.5713-.749-.7237 0-.1523.0888-.2877.2665-.4062.5248-.3555 1.4135-.5332 2.666-.5332h.2413c.4824 0 .8252.2433 1.0283.73.2031.4866.3682.73.4951.73.127 0 .3449-.1185.6538-.3555.309-.237.6813-.474 1.1172-.711.4359-.237.9204-.3554 1.4536-.3554s.9416.1375 1.2251.4126c.2835.275.4253.6284.4253 1.06-.0085.4401-.1227.7702-.3428.9903-.22.22-.457.33-.7109.33-.254 0-.5882-.1036-1.003-.311-.4146-.2074-.7616-.311-1.041-.311-.2792 0-.584.1163-.914.349-.33.2328-.6115.6475-.8442 1.2442-.2328.5967-.3492 1.6166-.3492 3.0596s.1016 2.374.3047 2.793c.2031.419.5184.8019.9458 1.1489.4274.347.6411.6305.6411.8506zm9.6739-15.8057c0 .3724-.1587.7173-.4761 1.0347-.3174.3174-.6327.476-.9458.476-.0677.017-.1227.0255-.165.0255l-.2793.0253c-.4232 0-.802-.1396-1.1363-.4189-.3343-.2793-.5014-.639-.5014-1.0791v-.2285c0-.4401.1756-.8104.5268-1.1109.3513-.3004.7554-.4506 1.2124-.4506h.0635l.4316.0507c.2624 0 .5353.1418.8189.4253.2835.2836.4253.5692.4253.857l.0254.1142v.2793zm-4.0371 5.6621c-.4402-.2116-.6602-.4105-.6602-.5967 0-.1861.0889-.3343.2666-.4443.6178-.3724 1.5954-.5586 2.9326-.5586h.3682c.457 0 .7151.2116.7744.6348.0338.2285.0508 1.7667.0508 4.6147s.0592 4.4815.1777 4.9004c.1185.419.402.7406.8506.9649.4486.2243.6728.4506.6728.6792 0 .3216-1.0494.4824-3.1484.4824l-.3808.0127h-1.5489c-.6178 0-.9267-.1524-.9267-.457 0-.254.1883-.4994.565-.7364.3765-.237.6368-.4993.7807-.787.1608-.3132.2412-1.0453.2412-2.1964l.0127-.4062v-.3936l.0127-.5967v-.3935l.0127-.3936c0-2.0058-.0656-3.176-.1968-3.5102-.1312-.3343-.4168-.6073-.857-.8189zm9.2802 10.5371c-1.1933 0-1.79-.1692-1.79-.5078 0-.2793.1566-.5078.4697-.6855.567-.3216.8971-.6115.9902-.8697.0931-.258.1397-1.481.1397-3.6689 0-2.1878-.0656-3.47-.1968-3.8467-.1312-.3766-.3703-.6876-.7173-.933-.347-.2455-.5205-.4444-.5205-.5968 0-.1523.1143-.2962.3428-.4316.5332-.3132 1.3796-.4697 2.539-.4697.347 0 .6179.1185.8126.3554.0677.0847.1629.2688.2856.5523.1227.2835.2052.4253.2476.4253.1608-.0085.4104-.1227.749-.3428 1.168-.7871 2.2259-1.1807 3.1738-1.1807h.4317c.6855 0 1.3033.1693 1.8535.5079.5501.3385.9754.8463 1.2759 1.5234.3004.677.4506 2.1518.4506 4.4243 0 2.2725.0487 3.542.146 3.8086.0974.2666.3724.5142.8252.7427.4528.2285.6792.4528.6792.6728 0 .3809-1.2018.5713-3.6054.5713h-.3809c-.7617 0-1.1426-.182-1.1426-.5459 0-.0762.0931-.2602.2793-.5522.1862-.292.3132-.6157.3809-.9712.0677-.3555.1015-1.5256.1015-3.5103s-.1227-3.2605-.3681-3.8276c-.3386-.7787-.9014-1.168-1.6885-1.168-.5755 0-1.132.1333-1.6694.4-.5375.2665-.9268.6432-1.168 1.1298-.2412.4867-.3618 1.6504-.3618 3.4912s.0508 2.9538.1523 3.3389c.1016.385.2243.6961.3682.933l.4697.7618c0 .33-.6644.4951-1.9931.4951l-.7745-.0254h-.787z"/></g></svg>