<svg viewBox="0 0 75 91" xmlns="http://www.w3.org/2000/svg"><path d="M73.508 3.901C66.248.247 37.187.247 37.187.247S8.226.247.986 3.901c0 0-2.074 38.917 0 55.941.248 2.034.95 4.008 2.001 5.922 7.729 14.112 34.2 24.484 34.2 24.484s12.292-4.804 22.597-12.319c6.892-5.025 12.894-11.262 13.724-18.087 2.075-17.024 0-55.941 0-55.941zM38.191 62.732l-1.552 1.546c-1.92-.241-2.389.636-2.335 1.646l-1.526.569-1.338-.669h-2.007l-.027-.027c-.033-.602-1.031-3.58-1.031-3.58l6.21-3.346a.947.947 0 0 1 .984.047c.89.602 2.75 1.874 3.138 2.262.514.515-.516 1.552-.516 1.552zm24.778 7.234c-.02.02-.04.033-.06.047-2.021 1.954-4.329 3.781-6.718 5.433l-1.332-.923h-6.022s-1.338-2.007-2.677-3.346c-.676-.676-2.723-2.382-4.584-3.908-.04-1.071-1.318-2.991-1.318-2.991v-1.546s1.546-3.62 3.613-4.651c2.068-1.03 3.098 4.135 3.098 4.135l.515-1.037c1.037 2.068 3.105 3.613 3.62 4.135.515.515 0 2.061 0 2.061l1.03-1.031c.515-.515 3.613 4.135 3.613 4.135v-2.583c1.151 1.144 2.007 2.57 2.382 3.239-.114-.823.201-2.723.201-2.723s1.037 1.03 2.068 1.546c.81.408 1.92.181 2.375.06-.616-.094-1.686-2.181-.308-2.643 1.017-.335 1.593.435 2.155.856a31.254 31.254 0 0 1-1.673 1.74c.009-.005.016-.005.022-.005zm6.786-11.63c-.328 2.71-1.566 5.32-3.386 7.769-2.161-2.215-8.19-8.538-6.484-8.538 2.068 0 4.135-1.037 4.135-1.037s-2.583-.515-1.037-1.03c.087-.027.167-.054.241-.074.616-.194.763-1.01.234-1.365-2.268-1.539-7.862-3.593-8.204-3.72 6.698 1.024 8.244-.522 8.766-1.037.515-.515-.522-1.037-.522-1.037-6.712 1.552-11.362-1.546-11.362-1.546 3.098-.515 4.651-2.068 4.651-2.068-6.196 1.03-12.399-4.135-12.399-4.135 5.681 0 9.816-2.583 9.816-2.583-3.098 0-4.651-1.031-4.651-1.031 5.681-.515 12.399-5.166 12.399-5.166-1.74.629-3.098 0-3.098 0 3.098-1.031 3.613-4.129 3.613-4.129-.917 1.412-6.196 3.098-6.196 3.098-2.583 0-1.552-1.037-1.552-1.037 10.847-3.098 9.301-7.227 9.301-7.227-.522 1.546-1.037 1.03-1.037 1.03.515-1.546 0-2.583 0-2.583-.656 1.238-15.484 5.454-19.499 5.454-2.65 0-12.011 4.363-12.011 4.363l-3.098-2.068c0-12.914-12.393-5.681-12.393-5.681-2.583 0-7.233 1.546-8.264 2.583-1.037 1.03.254 2.322.254 2.322 3.098-3.098 9.301 1.552 9.301 1.552-7.963 17.799 6.584 23.28 9.368 24.149a.597.597 0 0 1 .422.562c.06 1.961 1.827 5.507 1.827 5.507l-2.576 2.061h-1.552c-3.158-1.974-4.202-.629-4.523.114h-1.512l-2.007 1.338s.669.669-1.338 0-4.015 0-4.015 0l-4.336 1.358c-1.218-1.974-2.034-4.042-2.289-6.17-1.867-15.27 0-50.166 0-50.166 6.484-3.265 32.46-3.265 32.46-3.265s26.05 0 32.554 3.265c-.001.002 1.859 34.898-.001 50.168z" fill="#000" fill-rule="nonzero"/></svg>