<svg viewBox="0 0 162 57" xmlns="http://www.w3.org/2000/svg"><g fill="#000" fill-rule="evenodd" fill-opacity=".63"><path d="M64.227 21.27v3.435c0 .499.056.798.169.897.113.099.354.148.723.148h.44c1.02 0 1.805-.254 2.36-.763.553-.51.83-1.178.83-2.005v-.42c0-.848-.272-1.52-.815-2.015-.544-.496-1.253-.744-2.128-.744h-.636c-.43 0-.695.07-.795.21-.099.14-.148.56-.148 1.257zm1.846-2.543c2.481 0 4.077.758 4.788 2.276.191.41.287.923.287 1.538 0 1.148-.516 2.15-1.548 3.004-.574.479-.861.879-.861 1.2 0 .096.338.716 1.015 1.861.676 1.145 1.17 1.913 1.481 2.302.311.39.7.679 1.164.867.465.188.697.364.697.528 0 .485-.53.728-1.589.728-.772 0-1.35-.188-1.733-.564-.266-.26-.8-1.104-1.6-2.533-.8-1.429-1.25-2.208-1.353-2.338-.362-.458-.913-.687-1.65-.687-.315 0-.53.142-.647.426-.116.283-.174.917-.174 1.902 0 .984.067 1.637.2 1.958.133.322.336.628.61.918.273.29.41.46.41.508 0 .232-.434.348-1.302.348l-.349-.01-.338-.02c-.15-.007-.383-.01-.697-.01-1.607 0-2.41-.137-2.41-.41 0-.274.113-.48.338-.616.574-.356.882-.571.923-.646.157-.287.236-1.077.236-2.369l.02-.718.01-.717v-.718l-.02-1.067c0-2.782-.066-4.409-.2-4.88-.133-.472-.372-.812-.718-1.02-.345-.21-.517-.392-.517-.55 0-.273.547-.41 1.64-.41l.349-.01c.24-.006.475-.01.707-.01l2.113-.061h.718zm13.842 9.525h-.174c-.896 0-1.642.2-2.24.6-.599.4-.898.898-.898 1.492v.205c0 .349.108.662.323.939.216.276.494.415.836.415l.123.02h.308c.71 0 1.292-.29 1.743-.871.198-.253.297-.773.297-1.559v-.184l.01-.247v-.246c0-.376-.109-.564-.328-.564zm-4.983-3.312c0-.505.401-.958 1.205-1.358.803-.4 1.635-.6 2.497-.6h.082c.82 0 1.476.1 1.968.297.998.397 1.57 1.238 1.713 2.523.013.13.02.99.02 2.579 0 1.589.043 2.52.128 2.794.086.273.318.475.698.605.38.13.569.253.569.369 0 .246-.123.434-.37.564-.492.26-.975.39-1.45.39s-.83-.11-1.062-.329c-.417-.39-.639-.584-.666-.584-.027 0-.414.173-1.159.518-.745.345-1.398.518-1.958.518-.841 0-1.5-.233-1.98-.698a2.27 2.27 0 0 1-.717-1.692v-.256c0-.71.308-1.336.923-1.876.615-.54 1.722-.96 3.322-1.262.581-.109.947-.212 1.097-.307.301-.192.451-.581.451-1.17 0-.587-.157-1.038-.471-1.353-.315-.314-.735-.471-1.262-.471-.526 0-1.033.306-1.522.917-.489.612-.935.918-1.338.918-.479 0-.718-.345-.718-1.036zm15.186 8.193h-.236c-.321 0-.64-.297-.954-.892-.157-.3-.639-1.48-1.445-3.537-.807-2.058-1.3-3.246-1.477-3.564-.178-.317-.454-.601-.83-.85-.376-.25-.564-.44-.564-.57 0-.212.15-.348.45-.41.302-.061.989-.092 2.062-.092s1.61.154 1.61.461c0 .02-.038.132-.113.333a1.879 1.879 0 0 0-.113.662c0 .936.533 2.638 1.6 5.106.198.451.338.677.42.677.082 0 .215-.205.4-.615 1.1-2.434 1.65-4.122 1.65-5.066 0-.232-.088-.478-.266-.738a7.794 7.794 0 0 1-.266-.4c0-.294.635-.44 1.907-.44h.246c.834 0 1.251.143 1.251.43 0 .246-.181.487-.544.723-.362.236-.639.528-.83.877-.089.157-.544 1.252-1.364 3.286-.82 2.034-1.374 3.312-1.661 3.835-.287.523-.598.784-.933.784zm12.797-6.798v-.318c0-.506-.181-.962-.544-1.369-.362-.407-.806-.61-1.333-.61h-.194c-.096.014-.161.02-.195.02-.479 0-.932.274-1.359.82-.427.548-.64 1.132-.64 1.754v.134c0 .218.13.328.389.328.102.02.157.03.164.03l.236.01h.061l.072-.01 1.979-.112.37-.041c.662 0 .994-.212.994-.636zm-4.266 2.717c0 .78.294 1.432.882 1.959.588.526 1.333.79 2.235.79.363 0 .692-.054.99-.16.297-.106.622-.234.974-.384s.572-.226.661-.226c.274 0 .41.147.41.441 0 .397-.505.82-1.517 1.272-.656.294-1.36.44-2.112.44h-.226c-1.285 0-2.352-.39-3.2-1.168-.457-.424-.813-.966-1.066-1.626a5.892 5.892 0 0 1-.379-2.127l.01-.236v-.236c0-.656.15-1.302.451-1.938.308-.636.674-1.159 1.098-1.569.895-.861 1.958-1.295 3.189-1.302 1.859 0 3.096.725 3.711 2.174.192.458.288.878.288 1.261v.205c0 .472-.195.788-.585.949-.39.16-1.309.292-2.758.394-1.45.103-2.236.171-2.359.205-.464.117-.697.41-.697.882zm9.71 3.866c-.963 0-1.445-.137-1.445-.41 0-.226.126-.41.38-.554.457-.26.724-.494.799-.702.075-.209.113-1.197.113-2.964s-.053-2.802-.16-3.107a1.523 1.523 0 0 0-.578-.753c-.28-.199-.42-.36-.42-.482 0-.123.091-.24.276-.349.43-.253 1.114-.38 2.05-.38.281 0 .5.096.657.288.055.068.132.217.23.446.1.229.166.343.2.343.13-.006.332-.099.606-.276.943-.636 1.797-.954 2.563-.954h.349c.553 0 1.052.137 1.497.41.444.274.788.684 1.03 1.23.243.547.364 1.739.364 3.574 0 1.836.04 2.86.118 3.076.079.216.301.416.667.6.366.185.548.366.548.544 0 .307-.97.461-2.912.461h-.307c-.616 0-.923-.147-.923-.44 0-.062.075-.211.225-.447.15-.236.253-.497.308-.784.055-.288.082-1.233.082-2.836 0-1.603-.1-2.633-.297-3.091-.274-.63-.728-.944-1.364-.944a3 3 0 0 0-1.348.323c-.435.216-.749.52-.944.913-.195.393-.292 1.333-.292 2.82 0 1.487.04 2.386.123 2.697.082.31.181.562.297.753l.38.616c0 .266-.537.4-1.61.4l-.626-.021h-.635zm18.847-6.952c-.287 0-.685-.298-1.194-.892-.51-.595-1.097-.892-1.764-.892-.666 0-1.225.33-1.676.99-.452.659-.677 1.594-.677 2.804 0 1.21.278 2.155.835 2.835.558.68 1.284 1.02 2.18 1.02.492 0 .903-.061 1.235-.185.332-.123.64-.254.923-.394.284-.14.484-.21.6-.21.198 0 .297.13.297.39 0 .396-.4.789-1.2 1.178-.8.39-1.575.585-2.327.585-1.463 0-2.639-.458-3.528-1.374-.362-.376-.666-.86-.912-1.451a4.9 4.9 0 0 1-.37-1.902v-.595c0-.595.134-1.21.4-1.846.527-1.244 1.375-2.105 2.544-2.584a5.36 5.36 0 0 1 2.02-.41h.235c.923 0 1.706.16 2.349.482.52.26.779.694.779 1.302 0 .404-.08.696-.241.877-.16.181-.33.272-.508.272zm2.492 6.675c0-.143.156-.328.467-.554.31-.225.52-.579.63-1.06.11-.483.164-2.313.164-5.492s-.036-4.98-.107-5.404c-.072-.423-.248-.728-.529-.912-.45-.294-.676-.475-.676-.544v-.123c0-.116.099-.219.297-.307.615-.267 1.436-.4 2.461-.4h.205c.349 0 .55.236.605.707.007.062.01.578.01 1.549v2.204l-.01.42v.647l-.01.42v3.25c0 2.024.032 3.277.097 3.759.065.481.217.832.457 1.05.027.021.17.11.43.267.26.157.39.318.39.482 0 .24-.424.359-1.272.359l-.42.02h-.42l-1.682.031h-.215c-.581 0-.872-.123-.872-.369zm11.874-4.389h-.174c-.896 0-1.643.2-2.24.6-.599.4-.898.898-.898 1.492v.205c0 .349.108.662.323.939.215.276.494.415.836.415l.123.02h.307c.711 0 1.292-.29 1.744-.871.198-.253.297-.773.297-1.559v-.184l.01-.247v-.246c0-.376-.11-.564-.328-.564zm-4.983-3.312c0-.505.401-.958 1.204-1.358.804-.4 1.636-.6 2.497-.6h.082c.82 0 1.477.1 1.97.297.997.397 1.568 1.238 1.711 2.523.014.13.021.99.021 2.579 0 1.589.043 2.52.128 2.794.086.273.318.475.697.605.38.13.57.253.57.369 0 .246-.124.434-.37.564-.492.26-.975.39-1.45.39-.476 0-.83-.11-1.062-.329-.417-.39-.639-.584-.666-.584-.028 0-.414.173-1.159.518-.745.345-1.398.518-1.959.518-.84 0-1.5-.233-1.979-.698a2.27 2.27 0 0 1-.717-1.692v-.256c0-.71.307-1.336.923-1.876.615-.54 1.722-.96 3.322-1.262.58-.109.947-.212 1.097-.307.3-.192.451-.581.451-1.17 0-.587-.157-1.038-.472-1.353-.314-.314-.734-.471-1.26-.471-.527 0-1.035.306-1.523.917-.49.612-.935.918-1.339.918-.478 0-.717-.345-.717-1.036zm24.28-1.671c.664 0 .996.185.996.554 0 .075-.088.251-.262.528-.174.277-.378.658-.61 1.143-.233.485-.663 1.637-1.292 3.456-.629 1.818-.991 2.82-1.087 3.004-.314.595-.749.892-1.302.892-.253 0-.51-.25-.77-.748-.259-.5-.667-1.462-1.225-2.887-.557-1.425-.91-2.138-1.06-2.138-.021 0-.336.747-.944 2.24-.609 1.494-.971 2.35-1.087 2.57-.328.621-.726.932-1.195.932-.468 0-.969-.793-1.502-2.378l-.256-.8c-.732-2.352-1.412-3.965-2.04-4.84-.384-.533-.575-.855-.575-.964 0-.11.055-.212.164-.308.232-.205.643-.307 1.23-.307h.39c.827 0 1.34.178 1.538.533.075.137.135.44.18.907.044.469.102.91.174 1.323.072.414.268 1.126.59 2.138.32 1.012.625 1.518.912 1.518.226 0 .5-.445.82-1.333.322-.889.482-1.706.482-2.451 0-.178-.035-.414-.107-.707-.072-.294-.108-.496-.108-.605 0-.41.253-.728.759-.954.246-.11.617-.164 1.112-.164.496 0 .908.195 1.236.584.17.205.256.5.256.882l-.02.298-.01.328c0 .191.15.784.45 1.779.302.994.519 1.627.652 1.897s.272.405.415.405c.294 0 .634-.564 1.02-1.692.387-1.128.58-2.095.58-2.902l-.082-1.036c0-.465.526-.697 1.579-.697z"/><path d="M46.417 2.31C41.83 0 23.462 0 23.462 0S5.158 0 .582 2.31c0 0-1.31 24.595 0 35.355.157 1.285.601 2.533 1.265 3.742 4.885 8.92 21.615 15.474 21.615 15.474s7.769-3.036 14.281-7.785c4.356-3.176 8.15-7.118 8.674-11.431 1.312-10.76 0-35.356 0-35.356zM24.097 39.49l-.981.977c-1.214-.152-1.51.402-1.476 1.04l-.965.36-.845-.423H18.56l-.017-.017c-.02-.38-.651-2.262-.651-2.262l3.924-2.115a.598.598 0 0 1 .622.03c.563.38 1.738 1.184 1.984 1.43.324.325-.327.98-.327.98zm15.66 4.572c-.013.013-.026.02-.039.03-1.277 1.235-2.735 2.39-4.245 3.433l-.842-.583h-3.806s-.846-1.268-1.692-2.115c-.427-.427-1.721-1.505-2.897-2.47-.025-.676-.833-1.89-.833-1.89v-.977s.977-2.288 2.283-2.94c1.307-.65 1.958 2.614 1.958 2.614l.326-.655c.655 1.307 1.962 2.283 2.288 2.613.325.325 0 1.303 0 1.303l.65-.652c.326-.326 2.284 2.613 2.284 2.613v-1.632c.727.723 1.268 1.624 1.505 2.047-.072-.52.128-1.721.128-1.721s.655.65 1.307.977c.511.258 1.213.114 1.5.038-.389-.06-1.065-1.378-.194-1.67.643-.212 1.007.274 1.362.54-.33.373-.685.74-1.058 1.1.006-.003.01-.003.014-.003zm4.288-7.35c-.207 1.713-.99 3.362-2.14 4.91-1.366-1.4-5.176-5.396-4.098-5.396 1.307 0 2.614-.656 2.614-.656s-1.633-.325-.656-.65c.055-.018.106-.035.153-.047.389-.123.482-.639.147-.863-1.433-.973-4.968-2.27-5.185-2.351 4.234.647 5.21-.33 5.54-.656.326-.325-.33-.655-.33-.655-4.241.981-7.18-.977-7.18-.977 1.958-.325 2.94-1.307 2.94-1.307-3.917.651-7.837-2.613-7.837-2.613 3.59 0 6.204-1.633 6.204-1.633-1.958 0-2.94-.651-2.94-.651 3.59-.326 7.837-3.265 7.837-3.265-1.1.397-1.958 0-1.958 0 1.958-.652 2.283-2.61 2.283-2.61-.58.892-3.916 1.958-3.916 1.958-1.632 0-.98-.655-.98-.655 6.855-1.958 5.878-4.568 5.878-4.568-.33.977-.656.651-.656.651.326-.977 0-1.632 0-1.632-.414.782-9.786 3.447-12.323 3.447-1.675 0-7.591 2.757-7.591 2.757l-1.958-1.307c0-8.162-7.833-3.59-7.833-3.59-1.632 0-4.571.977-5.223 1.632-.655.651.16 1.468.16 1.468 1.959-1.958 5.88.98 5.88.98-5.034 11.25 4.16 14.714 5.92 15.263.157.047.262.19.266.355.038 1.24 1.155 3.48 1.155 3.48l-1.628 1.303h-.98c-1.997-1.248-2.656-.397-2.86.072h-.955l-1.268.846s.422.423-.846 0-2.538 0-2.538 0l-2.74.858c-.77-1.248-1.285-2.555-1.447-3.9-1.18-9.65 0-31.705 0-31.705 4.098-2.063 20.515-2.063 20.515-2.063s16.464 0 20.575 2.063c0 .001 1.175 22.056 0 31.707z" fill-rule="nonzero"/></g></svg>