<svg viewBox="0 0 148 57" xmlns="http://www.w3.org/2000/svg"><g fill="#000" fill-rule="evenodd" fill-opacity=".63"><path d="M66.765 20.285a3.277 3.277 0 0 0-1.891-.574c-.701 0-1.274.183-1.718.549-.444.365-.666.878-.666 1.538s.331 1.242.994 1.748c.397.308 1.207.725 2.43 1.25 1.224.527 2.075 1.013 2.554 1.457.916.848 1.374 1.73 1.374 2.645v.37c0 1.134-.452 2.057-1.354 2.768-.417.328-.936.59-1.559.785a6.214 6.214 0 0 1-1.866.292h-.38c-1.407 0-2.641-.212-3.7-.636-.48-.191-.719-.714-.719-1.569v-.359c0-1.011.175-1.517.523-1.517.24 0 .564.324.974.974.41.65.884 1.138 1.42 1.466.537.328 1.185.492 1.944.492.759 0 1.37-.2 1.835-.6.465-.4.697-.893.697-1.481 0-.807-.376-1.487-1.127-2.04-.322-.233-1.128-.648-2.42-1.247-1.292-.598-2.188-1.157-2.687-1.676-.684-.711-1.025-1.58-1.025-2.605s.365-1.876 1.097-2.553c.403-.376.906-.668 1.507-.877a5.598 5.598 0 0 1 1.846-.312h.38c.26 0 .628.044 1.107.133l.359.072.687.133.317.02.308.01c.287.021.489.056.605.103.403.164.605.735.605 1.713 0 .977-.191 1.466-.574 1.466-.192 0-.479-.273-.861-.82-.383-.547-.722-.92-1.016-1.118zm4.871 12.356c0-.143.156-.328.467-.554.31-.225.52-.579.63-1.06.11-.483.164-2.313.164-5.492s-.036-4.98-.107-5.404c-.072-.423-.248-.728-.529-.912-.45-.294-.676-.475-.676-.544v-.123c0-.116.099-.219.297-.307.615-.267 1.436-.4 2.461-.4h.205c.349 0 .55.236.605.707.007.062.01.578.01 1.549v2.204l-.01.42v.647l-.01.42v3.25c0 2.024.032 3.277.097 3.759.065.481.217.832.457 1.05.027.021.17.11.43.267.26.157.39.318.39.482 0 .24-.424.359-1.272.359l-.42.02h-.42l-1.682.031h-.215c-.581 0-.872-.123-.872-.369zm9.66-8.131c0 .731.567 2.468 1.701 5.209.158.383.284.574.38.574.095 0 .273-.277.533-.83.943-1.997 1.415-3.504 1.415-4.523 0-.294-.048-.533-.144-.717l-.112-.185c-.164-.219-.246-.372-.246-.461 0-.267.434-.4 1.302-.4h.656c.827 0 1.24.157 1.24.471 0 .178-.168.45-.507.816-.338.365-.583.72-.733 1.06-.15.343-.699 1.77-1.646 4.282s-1.68 4.228-2.2 5.147c-.519.92-1.002 1.581-1.45 1.984-.448.404-.908.605-1.38.605h-.266c-.355 0-.658-.1-.907-.302-.25-.202-.375-.41-.375-.625 0-.216.088-.39.262-.523.174-.134.405-.2.692-.2l.236.02c.102.007.26.01.472.01.478 0 .919-.307 1.322-.922.404-.616.605-1.238.605-1.867s-.974-3.004-2.922-7.126a5.337 5.337 0 0 0-.785-1.17c-.345-.402-.517-.683-.517-.84 0-.26.18-.443.543-.549.362-.105.945-.158 1.748-.158.804 0 1.205.174 1.205.523-.082.355-.123.587-.123.697zm12.601 7.136l1.559-.235c.178 0 .266.138.266.415 0 .277-.263.562-.79.856-.526.294-1.08.441-1.66.441h-.205c-.458 0-.872-.12-1.241-.359-.37-.24-.64-.533-.81-.882-.294-.608-.441-1.762-.441-3.46 0-1.7-.06-2.76-.18-3.184-.12-.424-.275-.715-.466-.872-.356-.287-.533-.444-.533-.471 0-.178.092-.329.277-.452.471-.314.73-.494.774-.538.044-.044.306-.603.784-1.676.24-.534.511-.8.815-.8.305 0 .508.11.61.328.028.055.088.352.18.892s.224.887.395 1.04c.17.155.55.301 1.138.442.588.14.882.34.882.6 0 .26-.325.454-.974.584-.65.13-1.043.297-1.18.502-.239.349-.358 1.333-.358 2.954 0 1.62.075 2.642.225 3.065.192.54.503.81.933.81zm3.476.79c0-.123.147-.347.441-.672.294-.324.477-.65.549-.979.072-.328.107-2.057.107-5.188s-.071-5.028-.215-5.691c-.068-.322-.212-.557-.43-.708-.397-.28-.595-.43-.595-.45 0-.254.133-.432.4-.534.506-.198 1.097-.297 1.774-.297h.338c.314 0 .538.126.672.379.133.253.2.81.2 1.671l-.01.38c-.008.253-.011.506-.011.758l-.02.76v.758c0 .896.157 1.343.471 1.343.034-.007.209-.078.523-.215.95-.424 1.747-.636 2.39-.636 1.202 0 2.047.482 2.532 1.446.321.656.482 2.27.482 4.84 0 .991.036 1.608.108 1.85.071.243.266.495.584.754.318.26.477.424.477.493 0 .211-.139.355-.415.43-.277.075-.983.113-2.118.113h-.359c-.745 0-1.117-.15-1.117-.451 0-.069.088-.241.266-.518.178-.277.294-.59.349-.938.055-.349.082-1.261.082-2.738s-.068-2.406-.205-2.79c-.472-.614-.995-.99-1.569-1.127-.786 0-1.415.28-1.887.84-.348.411-.523 1.346-.523 2.805 0 1.46.034 2.39.103 2.79.068.4.217.762.446 1.086.229.325.343.525.343.6 0 .246-.693.37-2.081.37s-2.082-.178-2.082-.534zm18.96-6.101v-.318c0-.506-.181-.962-.544-1.369-.362-.407-.806-.61-1.333-.61h-.195c-.095.014-.16.02-.194.02-.479 0-.932.274-1.359.82-.427.548-.64 1.132-.64 1.754v.134c0 .218.129.328.389.328.102.02.157.03.164.03l.236.01h.061l.072-.01 1.979-.112.37-.041c.662 0 .994-.212.994-.636zm-4.266 2.717c0 .78.294 1.432.882 1.959.588.526 1.333.79 2.235.79.363 0 .692-.054.99-.16.297-.106.622-.234.974-.384s.572-.226.661-.226c.274 0 .41.147.41.441 0 .397-.505.82-1.517 1.272-.656.294-1.36.44-2.112.44h-.226c-1.285 0-2.352-.39-3.2-1.168-.457-.424-.813-.966-1.066-1.626a5.892 5.892 0 0 1-.379-2.127l.01-.236v-.236c0-.656.15-1.302.451-1.938.308-.636.674-1.159 1.098-1.569.895-.861 1.958-1.295 3.189-1.302 1.859 0 3.096.725 3.711 2.174.192.458.288.878.288 1.261v.205c0 .472-.195.788-.585.949-.39.16-1.309.292-2.758.394-1.45.103-2.236.171-2.359.205-.464.117-.697.41-.697.882zM125.47 32.6c0 .267-.619.4-1.856.4h-1.087l-.43-.02-.647-.01c-.724 0-1.086-.13-1.086-.39 0-.185.162-.382.487-.59a1.54 1.54 0 0 0 .656-.81c.113-.332.169-1.31.169-2.938 0-1.627-.053-2.615-.159-2.963-.106-.349-.272-.598-.497-.749-.404-.266-.605-.461-.605-.584 0-.123.072-.233.215-.328.424-.287 1.142-.431 2.153-.431h.195c.39 0 .667.197.83.59.165.393.298.59.4.59.103 0 .28-.096.529-.288.25-.191.55-.383.902-.574a2.418 2.418 0 0 1 1.174-.287c.43 0 .76.11.99.333.229.222.343.508.343.856-.007.356-.099.622-.277.8-.177.178-.369.267-.574.267-.205 0-.475-.084-.81-.252-.335-.167-.615-.25-.84-.25-.226 0-.472.093-.739.281-.267.188-.494.523-.682 1.005-.188.482-.282 1.306-.282 2.471 0 1.166.082 1.918.246 2.256.164.338.419.648.764.928.345.28.518.51.518.687zm7.813-12.766c0 .3-.128.58-.384.836s-.511.384-.764.384a.576.576 0 0 1-.133.02l-.226.021c-.342 0-.648-.113-.918-.338a1.084 1.084 0 0 1-.405-.872v-.184c0-.356.142-.655.426-.898.284-.242.61-.364.98-.364h.05l.35.041c.211 0 .431.115.66.344.23.229.344.46.344.692l.02.092v.226zm-3.26 4.573c-.356-.17-.533-.331-.533-.482 0-.15.071-.27.215-.359.499-.3 1.288-.45 2.369-.45h.297c.369 0 .578.17.625.512.028.185.041 1.427.041 3.727s.048 3.62.144 3.958c.096.339.325.598.687.78.362.18.543.364.543.548 0 .26-.847.39-2.543.39l-.307.01h-1.251c-.5 0-.749-.123-.749-.37 0-.204.152-.402.457-.594.304-.191.514-.403.63-.636.13-.253.195-.844.195-1.774l.01-.328v-.318l.01-.481v-.318l.01-.318c0-1.62-.052-2.565-.158-2.835-.106-.27-.337-.49-.692-.662zm7.495 8.511c-.964 0-1.445-.137-1.445-.41 0-.226.126-.41.379-.554.458-.26.725-.494.8-.702.075-.209.113-1.197.113-2.964s-.053-2.802-.16-3.107a1.523 1.523 0 0 0-.579-.753c-.28-.199-.42-.36-.42-.482 0-.123.092-.24.277-.349.43-.253 1.114-.38 2.05-.38.28 0 .5.096.657.288.054.068.131.217.23.446.1.229.166.343.2.343.13-.006.332-.099.605-.276.944-.636 1.798-.954 2.564-.954h.348c.554 0 1.053.137 1.498.41.444.274.787.684 1.03 1.23.243.547.364 1.739.364 3.574 0 1.836.04 2.86.118 3.076.079.216.3.416.667.6.365.185.548.366.548.544 0 .307-.97.461-2.912.461h-.308c-.615 0-.922-.147-.922-.44 0-.062.075-.211.225-.447.15-.236.253-.497.308-.784.054-.288.082-1.233.082-2.836 0-1.603-.1-2.633-.298-3.091-.273-.63-.728-.944-1.363-.944a3 3 0 0 0-1.349.323c-.434.216-.748.52-.943.913-.195.393-.292 1.333-.292 2.82 0 1.487.04 2.386.123 2.697.082.31.18.562.297.753l.38.616c0 .266-.537.4-1.61.4l-.626-.021h-.636z"/><path d="M46.419 2.308C41.829 0 23.464 0 23.464 0S5.157 0 .581 2.308c0 0-1.307 24.596 0 35.357.53 4.335 4.341 8.297 8.715 11.481 6.473 4.72 14.168 7.735 14.168 7.735s10.2-3.982 17.018-9.964c3.112-2.727 5.525-5.878 5.937-9.252 1.307-10.761 0-35.357 0-35.357zm-2.373 34.403c-.249 2.046-1.314 3.995-2.844 5.8.058-2.55-.432-5.5-1.674-8.892 0 0-2.561-6.885-3.544-8.85-1.264-2.529-3.062-5.102-3.062-6.135 0-1.033.66-3.28 1.108-3.91.313-.44 1.223-1.628.876-1.974-.347-.346-1.903.595-1.903.595-.058.058-5.498 2.752-2.752 8.25 2.752 5.493 4.126 8.585 3.779 8.931 0 0-8.245-3.323-12.023.796-2.792 3.047-2.16 4.975-2.16 5.662 0 .687 1.127 13.47 14.183 5.22 0 0-1.373 8.25-9.617 8.25-8.245 0-8.245-7.905-8.245-7.905s.216-7.082 3.833-11.968c5.239-7.078 6.503-10.238 6.525-11.684.064-4.118-.654-5.506-.654-5.506s-1.46-5.885-7.815-4.336c0 0-4.812-.686-7.218 3.779 0 0-4.805 3.432-2.406 5.838 0 0-.17.857.176 1.203.34.34-.346-1.033.34-1.033 0 0 1.034.347 1.72 0 .686-.34-1.033.687-.686 1.373 0 0-1.556.053-2.21.706-.327.327.15 1.7-.543 2.047-.687.34-1.713 1.72-1.373 2.406 0 0 .745-1.21 1.373-1.465a.148.148 0 0 1 .203.137c.006.354.137 1.144 1.17 1.668-.059-.066-.693-.772-.144-1.772.274-.49.366-1.066.314-1.628a4.281 4.281 0 0 1-.02-.412c0-.686 1.23-.994 1.23-.994s2.406 3.433 8.244-3.092c0 0 1.373-.346 2.06-1.38 0 0 1.033 4.472-4.805 10.997 0 0-7.4 7.99-6.813 17.928-2.98-2.524-5.328-5.48-5.713-8.65-1.177-9.65 0-31.702 0-31.702 4.099-2.066 20.516-2.066 20.516-2.066s16.462 0 20.574 2.066c0 0 1.176 22.052 0 31.702zm-11.906-.517s-5.498 3.779-6.525 1.373c0 0-.346-1.72 2.06-2.06 2.406-.346 4.465.687 4.465.687z" fill-rule="nonzero"/></g></svg>